<svg preserveAspectRatio="none" width="100%" height="100%" overflow="visible" style="display: block;" viewBox="0 0 29.8387 50" fill="none" xmlns="http://www.w3.org/2000/svg">
<g id="Layer_1" clip-path="url(#clip0_1362_990)">
<path id="Vector" d="M17.068 0.44075C20.2666 0.308296 23.4753 0.190687 26.6739 0.100482C27.459 0.0787867 28.5664 -0.0742198 29.3312 0.0445315C29.5422 0.0776448 29.7374 0.219233 29.8021 0.425906C29.9031 0.752472 29.7794 1.75501 29.6863 2.10555C29.5593 2.57941 28.5744 3.59223 28.2022 4.03412C27.7563 4.56393 27.3399 5.10288 26.8985 5.63041C26.7227 5.84051 26.2336 6.21389 26.1304 6.39658C26.0748 6.49592 26.0328 6.93553 26.0203 7.08511C25.8842 8.84469 25.8898 10.6237 25.8524 12.3912C25.8297 13.4634 25.664 14.941 25.7923 15.9835C25.8433 16.3945 26.3721 17.3194 26.5309 17.8058C27.5907 21.0532 26.995 25.1296 25.116 27.9614C25.057 29.5988 24.8664 31.2293 24.7734 32.8644C24.7348 33.5495 24.6009 34.7553 24.6554 35.3776C24.6905 35.7681 25.2102 36.7079 25.3407 37.1966C25.4144 37.4729 25.4076 37.7481 25.4655 37.9833C25.6175 38.6044 26.0317 39.3603 26.2461 39.9918C26.835 41.7205 26.5865 43.1764 26.6398 44.9576C26.675 46.1452 26.9178 47.6844 26.8146 48.8365C26.7556 49.4896 26.4685 49.7831 25.8524 49.9212C25.1909 50.0697 24.2026 49.9692 23.4992 49.9463C18.7915 49.7922 14.0442 49.6106 9.33661 49.4885C7.82527 49.4496 6.18572 49.541 4.68913 49.4325C3.71107 49.3617 3.17893 49.235 3.12787 48.1525C3.08702 47.2801 3.21524 46.1851 3.24247 45.2979C3.28558 43.9197 3.16872 41.354 3.62938 40.1551C3.79163 39.7349 4.35214 39.0087 4.42022 38.6695C4.52347 38.1568 4.40774 37.7458 4.61651 37.1566C4.77536 36.7078 5.43799 35.8332 5.45841 35.4906C5.49245 34.9095 5.28935 34.0987 5.28368 33.4924C5.12029 31.5033 5.20312 29.4309 4.93762 27.4521C4.88769 27.0776 4.51893 26.6231 4.34647 26.2794C2.94633 23.4911 2.87031 20.5874 3.78142 17.6094C3.89829 17.2292 4.2852 16.5624 4.32037 16.2701C4.46674 15.0677 4.11273 13.4063 4.14677 12.1652C4.16947 11.061 4.06508 9.9557 4.03331 8.85725C4.01629 8.28062 4.10933 7.50873 4.03898 6.96979C3.9936 6.62153 3.18006 6.11455 2.93725 5.85421C2.72053 5.62127 2.65019 5.3164 2.45162 5.08918C2.27916 4.8905 2.01592 4.75576 1.82644 4.57878C1.46562 4.24193 0.570394 3.50545 0.329851 3.1766C0.0632111 2.81007 -0.0593298 1.76871 0.0269027 1.33709C0.193694 0.513827 1.25912 0.75133 1.85707 0.727351C3.81773 0.650848 5.66378 0.631437 7.63578 0.665692C9.60778 0.699947 11.691 0.675969 13.7243 0.610884C13.7481 0.699947 13.933 0.696522 13.9512 0.610884C14.2938 0.598324 14.632 0.568636 14.9712 0.553792L15.0552 0.610884L15.0835 0.553792C15.7065 0.527529 16.3362 0.467012 16.9534 0.439608L17.0374 0.4967L17.0658 0.439608L17.068 0.44075ZM28.6822 3.00646C28.689 2.99961 28.8047 3.01103 28.8819 2.95394C28.908 2.93453 29.2688 2.51547 29.3051 2.46523C29.5366 2.13981 29.7034 0.978556 29.6421 0.586905C29.6069 0.364246 29.4889 0.293452 29.279 0.268332C27.872 0.102765 26.2336 0.45331 24.7995 0.324282C20.422 0.624586 16.0469 0.746763 11.6581 0.840393C8.39032 0.910046 5.12597 0.826691 1.85821 0.955719C0.789379 0.997967 0.173271 0.609742 0.23908 2.01078C0.252696 2.29966 0.312831 2.7427 0.455796 2.98934C0.59876 3.23597 1.71184 4.22595 1.99663 4.46117C2.15208 4.59019 2.32908 4.69524 2.47886 4.83112C2.55374 4.60961 2.46751 4.35612 2.51857 4.13003C2.55941 3.94734 2.7194 3.96447 2.73301 3.80461C3.07341 3.78634 3.41266 3.76579 3.75305 3.74752C3.80071 3.74523 3.85177 3.74523 3.86652 3.69042C4.21826 3.83201 4.58247 3.69271 4.91265 3.68814C5.60251 3.67786 6.29351 3.7007 6.98337 3.69042L7.0401 3.57624C7.31468 3.66074 7.55409 3.62648 7.83321 3.63333C7.87065 3.63333 7.90923 3.63333 7.94667 3.63333C8.2848 3.64133 8.62859 3.63676 8.96671 3.63333C9.00416 3.63333 9.04273 3.63333 9.08018 3.63333C9.24924 3.63219 9.42057 3.63676 9.58963 3.63333C9.64069 3.63219 9.69288 3.57624 9.70309 3.57624C9.99356 3.56939 10.292 3.56711 10.5836 3.57396C10.722 3.57738 10.8865 3.65617 11.0068 3.63333C11.0329 3.62876 11.0465 3.59108 11.0635 3.57624C11.1271 3.52372 11.1588 3.41867 11.177 3.40496C11.1815 3.40154 11.2836 3.34901 11.2905 3.34787C11.4153 3.32389 11.9928 3.28735 12.1403 3.29078C12.2265 3.29306 12.5703 3.36843 12.7065 3.40496L12.9107 3.86513C13.8967 3.90966 14.8782 3.78748 15.8596 3.76921C16.0809 3.76464 16.5745 3.90395 16.731 3.7224C16.8037 3.6379 16.8366 3.45406 16.9546 3.34901C16.9739 3.33189 16.9965 3.29992 17.0113 3.29192C17.2382 3.16404 18.1868 3.10009 18.4273 3.20628C18.6679 3.31248 18.4092 3.49974 18.9946 3.46206C19.0468 3.45863 19.0945 3.40611 19.1081 3.40496C19.2511 3.39012 19.4632 3.45977 19.5608 3.34787C19.579 3.35244 19.5994 3.34445 19.6176 3.34787C19.8263 3.3924 19.9545 3.42323 20.1837 3.40496C20.2314 3.40154 20.2813 3.40382 20.2972 3.34787C20.5037 3.4278 21.2548 3.40154 21.5442 3.40496C21.6202 3.40496 21.6951 3.40496 21.7711 3.40496C22.2953 3.41067 22.8343 3.41638 23.3573 3.40496C23.4708 3.40268 23.5843 3.40839 23.6977 3.40496C23.7352 3.40496 23.7737 3.40496 23.8112 3.40496C23.8486 3.40496 23.8634 3.34787 23.8679 3.34787C24.3093 3.33417 24.7473 3.31248 25.1705 3.29078C25.2272 3.28735 25.2839 3.29306 25.3407 3.29078C25.453 3.28507 25.5676 3.29649 25.6811 3.29078C25.7378 3.2885 25.7945 3.29421 25.8513 3.29078C25.8887 3.2885 25.9273 3.29306 25.9647 3.29078C26.0181 3.28735 26.068 3.23369 26.0782 3.23369C26.1156 3.2314 26.1542 3.23597 26.1917 3.23369C26.1996 3.23369 26.2223 3.23483 26.2484 3.23369C26.304 3.2314 26.3618 3.23369 26.4186 3.23369C26.4526 3.23369 26.4594 3.34901 26.5888 3.23369C26.6092 3.21542 26.6296 3.19829 26.6455 3.1766H26.7022C26.869 3.27594 27.1584 3.30334 27.2684 3.40496C27.577 3.68814 27.2457 4.50113 27.3252 4.60275C27.4579 4.63929 27.4205 4.5685 27.4545 4.52968C27.7268 4.2191 27.9798 3.87198 28.2317 3.57624C28.3339 3.45521 28.6584 3.03272 28.6845 3.00646H28.6822ZM17.068 3.52029C17.0442 3.53399 16.9875 3.48261 16.9523 3.55683C16.9024 3.66188 16.8479 4.29217 16.8388 4.45888C16.7719 5.71376 16.8059 7.02574 16.7821 8.28062C16.7742 8.69168 16.7719 9.10503 16.8411 9.50924C17.093 9.36879 17.0646 9.56519 17.1009 9.5709C17.1826 9.58231 17.2916 9.49439 17.3721 9.50581C17.3948 9.50924 17.6444 9.6828 17.6671 9.68622C17.7397 9.69536 17.8237 9.62228 17.885 9.62228C17.9213 9.62228 17.8895 9.72847 17.9984 9.74331C18.1074 9.75816 18.2526 9.72504 18.3717 9.73875C18.3933 8.57064 18.3434 7.39683 18.3695 6.22873C18.3797 5.76629 18.4761 5.2125 18.4875 4.75005C18.4943 4.49314 18.5294 3.55797 18.4012 3.40725C18.3184 3.30905 17.3063 3.32618 17.1656 3.40725C17.1043 3.44379 17.1304 3.51686 17.1259 3.52029C17.1157 3.52942 17.0839 3.5123 17.0692 3.52029H17.068ZM12.8699 9.61771C12.8733 8.88922 12.8846 8.15502 12.8733 7.42881C12.8721 7.31462 12.8177 7.20843 12.8154 7.0874C12.8063 6.30752 12.9606 4.59704 12.8052 3.96104C12.6021 3.13206 11.9395 3.57053 11.3245 3.52828C11.1611 3.58309 11.169 4.03412 11.1725 4.17913C11.2076 5.44771 11.3029 6.72657 11.3472 7.99516C11.371 8.66884 11.3245 9.34824 11.3449 10.0219L12.8687 9.61771H12.8699ZM18.4841 8.76704C18.4863 8.94859 18.4512 9.71705 18.509 9.79698C19.68 10.1441 20.7953 10.6922 21.7881 11.4001C22.6357 12.0042 23.675 12.8994 24.2514 13.7683C24.4897 14.1268 24.5271 14.3472 24.9413 14.6144L25.5653 15.6112L25.849 5.80169C25.9261 5.7857 25.9851 5.8211 26.009 5.89646C26.043 6.00493 25.9477 6.22302 26.1032 6.20019C26.3539 5.772 27.0676 5.30613 27.147 4.79801C27.172 4.63587 27.2537 3.56482 27.2083 3.51915L18.5964 3.57624C18.7518 4.27276 18.5646 4.98184 18.5964 5.68636C18.9016 5.65553 19.217 5.64069 19.5234 5.63726C19.9716 5.63269 21.0052 5.73546 21.3717 5.62927C21.3978 5.70006 21.4806 5.68864 21.5419 5.68636C21.5793 5.68408 21.6179 5.68864 21.6554 5.68636C21.6928 5.68408 21.7076 5.62927 21.7121 5.62927C22.0865 5.60986 22.5166 5.64411 22.9023 5.62927C22.9534 5.62698 23.0045 5.57218 23.0158 5.57218C23.1293 5.56875 23.2427 5.57446 23.3562 5.57218C23.3936 5.57218 23.4322 5.57218 23.4697 5.57218C23.5831 5.56989 23.6966 5.57332 23.81 5.57218C23.8475 5.57218 23.8861 5.57218 23.9235 5.57218C24.1119 5.57218 24.3025 5.56761 24.4897 5.57218C24.5271 5.57218 24.5657 5.57218 24.6032 5.57218C24.863 5.58017 25.0672 5.61442 25.3112 5.63383C25.4734 5.64639 25.7253 5.49567 25.849 5.74345C24.6122 5.75601 23.3732 5.72975 22.1353 5.74117C21.1879 5.7503 20.0226 5.70805 19.107 5.80054C19.0695 5.80397 19.031 5.79712 18.9935 5.80054C18.5601 5.84736 18.4909 5.75373 18.5397 6.28012C18.5328 6.33378 18.6225 6.32351 18.6543 6.31323C18.4114 6.86816 18.4773 8.00429 18.4841 8.65172C18.4841 8.6894 18.4841 8.72822 18.4841 8.7659V8.76704ZM11.1191 5.63041C11.0964 5.0161 10.9886 4.4212 11.0057 3.80461C10.09 3.81717 9.17095 3.78976 8.2553 3.80232C8.12141 3.80461 7.99773 3.8617 7.86385 3.86398C6.3786 3.88682 4.61084 3.77035 3.15964 3.91993C2.59345 3.97817 2.62522 4.27847 2.67742 4.80258C2.775 5.76857 3.57605 5.99466 4.12181 6.65692C4.18649 6.41942 4.06167 6.15109 4.3737 6.05517C4.88883 6.04946 5.39487 5.94099 5.9066 5.91587C6.1131 5.90559 6.32301 5.92272 6.52951 5.91587C6.56696 5.91815 6.60553 5.91244 6.64298 5.91587C6.69063 5.91929 6.74736 5.85878 6.75644 5.85878C6.81317 5.8622 6.8699 5.85649 6.92664 5.85878C6.93798 5.85878 7.02421 5.91359 7.15356 5.91587C7.19101 5.91587 7.22958 5.91587 7.26703 5.91587C7.36574 5.91815 7.42815 5.85878 7.43722 5.85878C7.45651 5.85878 7.47467 5.85878 7.49395 5.85878C7.57565 5.85992 7.69932 5.85878 7.77761 5.85878C8.11687 5.8622 8.46861 5.85535 8.79765 5.85878C8.80219 5.85878 8.81581 5.91587 8.85439 5.91587C8.91112 5.91587 8.96785 5.91587 9.02458 5.91587C9.14372 5.91587 9.23903 5.85878 9.25151 5.85878C9.34341 5.85878 9.46142 5.91473 9.5919 5.91587C9.66792 5.91587 9.74281 5.91587 9.81883 5.91587C9.89485 5.91587 9.972 5.92272 10.0458 5.91587C10.0934 5.9113 10.1433 5.91473 10.1592 5.85878C10.1944 5.87362 10.4361 5.92044 10.4746 5.92044C10.5972 5.92044 10.4327 5.83822 10.7254 5.85878C10.781 5.8622 10.8389 5.85878 10.8956 5.85878H11.0091C11 5.88732 11.0159 5.93756 11.0091 5.97296C9.3854 5.9741 7.54274 5.94327 5.9361 6.02777C5.40849 6.05517 4.85819 6.19334 4.32378 6.20133C4.27045 7.04629 4.24776 7.89239 4.26478 8.74078C4.29995 10.5586 4.43043 12.4004 4.49284 14.2148C4.51099 14.7583 4.45766 15.3018 4.5507 15.8396C5.08285 15.1522 5.46068 14.3632 6.00077 13.6781C6.51249 13.0284 7.1876 12.3239 7.84229 11.8249C8.84304 11.061 9.9947 10.5574 11.1532 10.0813C11.2099 9.9968 11.1861 8.31601 11.1815 8.05225C11.1713 7.37057 11.1418 6.66149 11.1225 5.97296C11.1191 5.85878 11.1271 5.74459 11.1225 5.63041H11.1191ZM13.4417 9.50924C14.5128 9.39848 15.5964 9.32197 16.6709 9.45214L16.7276 3.91879L12.9879 4.03298C12.9845 4.14602 12.9924 4.26134 12.9879 4.37553C12.9867 4.41321 12.9879 4.45203 12.9879 4.48971C12.9845 4.67355 12.9754 4.87908 12.9879 5.05949C12.9345 5.05378 12.9255 5.13599 12.9311 5.17367C12.9414 5.2399 12.9811 5.3027 12.9879 5.40204C12.9879 5.41003 12.9856 5.4637 12.9879 5.51623C12.9913 5.63041 12.9845 5.74459 12.9879 5.85878C12.9879 5.88847 12.9856 5.92272 12.9879 5.97296C12.9913 6.06773 12.9856 6.16365 12.9879 6.25842C12.9595 6.30295 12.9436 6.29153 12.9311 6.3726C12.8994 6.57699 12.9777 6.92982 12.9879 7.17075C12.9901 7.22784 12.9856 7.28493 12.9879 7.34203C12.9924 7.4368 12.9845 7.53271 12.9879 7.62749C12.9913 7.72226 13.0435 7.81589 13.0446 7.85585C13.0457 7.89582 13.0435 7.93236 13.0446 7.97004C13.0457 8.00429 13.0423 8.07166 13.0446 8.14131C13.0537 8.36854 13.0401 8.59805 13.0446 8.82528C13.0457 8.90178 13.0435 8.97714 13.0446 9.05364C13.0446 9.09132 13.0435 9.13015 13.0446 9.16783C13.0469 9.24319 13.0367 9.32198 13.0446 9.39619C13.0491 9.43273 13.0367 9.47841 13.0446 9.51038C13.0559 9.55719 13.0514 9.55948 13.1013 9.56747C13.2023 9.58346 13.2659 9.51951 13.3283 9.51038C13.3646 9.50581 13.4043 9.5138 13.4417 9.51038V9.50924ZM24.3762 14.5847C24.2979 14.6429 24.2106 14.8439 24.1209 14.9261C23.9587 15.0757 23.6013 15.3589 23.4152 15.4708C23.3403 15.5165 23.2995 15.5827 23.186 15.553C23.1508 15.5244 23.6762 14.8782 23.7306 14.8188C23.9712 14.5573 24.1493 14.6886 24.1527 14.2148C24.1561 13.7683 23.6694 13.2773 23.3585 12.9564C16.3555 5.72861 4.03785 10.6853 3.4138 20.6593C3.24701 23.3232 3.9085 25.2529 5.25872 27.4692C7.28405 30.7954 11.1645 33.1556 15.0835 32.8918C15.0007 32.9569 14.8816 32.7559 14.8441 32.7057C14.6025 32.3826 13.9444 31.3709 13.8536 31.0215C13.722 30.5134 13.7118 29.8488 14.0351 29.4126C14.0703 29.6912 13.8967 29.9482 13.8899 30.2393C13.8683 31.0672 14.3846 31.7283 14.8589 32.3483C14.9224 32.4317 15.0858 32.5424 15.1142 32.6086C15.1425 32.6749 15.1062 32.8736 15.0835 32.8918C15.9527 32.8336 16.8842 32.9135 17.7363 32.7388C24.7382 31.3047 28.7276 23.6155 25.9886 16.9814C25.7367 16.3694 25.0445 14.8553 24.5453 14.5276C24.4897 14.4911 24.3683 14.45 24.3467 14.4146C24.2911 14.3278 24.3717 14.1782 24.2628 14.1851L24.3751 14.5836L24.3762 14.5847ZM8.85325 31.4097C8.3994 31.1414 7.98071 30.7178 7.52119 30.4403L7.43722 30.5533C7.43382 30.5065 7.44857 30.4357 7.42134 30.4003C7.11272 30.0053 6.61461 29.6307 6.27422 29.2425C5.86575 28.7766 5.55599 28.2411 5.17135 27.7593C5.39034 30.6276 5.4777 33.5118 5.76477 36.3733C5.81923 36.5457 5.89412 36.6348 6.06658 36.6941C6.31053 36.7786 6.89827 36.8152 7.17966 36.8289C7.84683 36.8631 8.52534 36.7992 9.19364 36.8255C9.04614 36.5366 8.77156 36.4703 8.52988 36.3265C8.46747 36.2888 8.3733 36.2854 8.48563 36.1974C8.83056 36.1278 9.24697 36.7832 9.34341 36.8163C9.40355 36.8369 10.0424 36.878 10.1819 36.8848C12.8528 37.023 15.61 36.7056 18.2832 36.999C20.0737 36.8574 22.1365 37.1817 23.894 36.9967C24.4057 36.9431 24.3206 36.5971 24.3751 36.1689C24.5033 35.1618 24.484 34.1581 24.5464 33.1476C24.5759 32.6703 24.8414 30.132 24.7155 29.9242C24.7075 29.9105 24.7246 29.8797 24.7155 29.8671C24.9662 29.4001 24.8324 28.7835 24.8846 28.2697C24.7802 28.4067 24.6497 28.5368 24.5453 28.6693C24.45 28.7892 24.3535 28.9559 24.2616 29.0689C24.1833 29.166 24.1119 29.2573 24.0347 29.3544C24.0279 29.3624 24.0007 29.3624 23.9212 29.4686C23.8305 29.5896 23.7749 29.5816 23.6943 29.754C23.5525 29.7461 23.5275 29.8728 23.4674 29.9253C23.4277 29.9607 23.3925 30.003 23.3539 30.0395C23.2677 30.1229 23.2734 30.0064 23.1837 30.2108C23.0816 30.3535 22.9352 30.3878 22.8433 30.5533C22.7582 30.5339 22.731 30.5705 22.6731 30.6104C22.6039 30.6584 22.5574 30.7417 22.5029 30.7817C22.4803 30.7977 22.4315 30.8091 22.3895 30.8388C22.2669 30.9256 22.0253 31.05 21.9368 31.1243C21.9152 31.1425 21.8982 31.1597 21.88 31.1813C21.8596 31.2065 21.8415 31.2601 21.8233 31.2955C21.7087 31.3127 21.6769 31.3709 21.5964 31.4097C21.5578 31.428 21.5215 31.4485 21.4829 31.4668C21.3774 31.5182 21.2957 31.5856 21.1992 31.6381C21.18 31.6484 21.1085 31.6541 21.0291 31.6952C20.9428 31.7397 20.8509 31.8128 20.7454 31.8664C20.7079 31.8859 20.6694 31.9041 20.6319 31.9235C20.548 31.9658 20.5207 31.9863 20.405 32.0377C20.3732 32.0514 20.3052 32.0651 20.2348 32.0948C20.0453 32.1747 19.857 32.2455 19.6686 32.3232C19.6232 32.3415 19.5801 32.3415 19.4984 32.3803C19.4167 32.4191 19.3214 32.4728 19.2715 32.5516H19.2148C19.1308 32.4819 19.023 32.5835 18.9311 32.6086C18.9141 32.6132 18.8914 32.6041 18.8744 32.6086C18.7575 32.6418 18.2129 32.7891 18.1959 32.8678C18.2015 32.9889 18.3173 33.0585 18.3502 33.1647C18.4262 33.4091 18.4602 33.8384 18.4784 34.0908C18.4795 34.1079 18.4818 34.1319 18.4784 34.1478C18.475 34.1604 18.4296 34.1821 18.4217 34.2049C18.4148 34.2232 18.3842 34.2529 18.3649 34.3191C18.3604 34.3362 18.3695 34.3579 18.3649 34.3762C18.3638 34.3819 18.3161 34.3911 18.3082 34.4904C18.3037 34.5543 18.298 34.6605 18.3082 34.7188C18.1335 34.7587 18.0631 34.8364 17.7987 34.89C17.7454 34.9003 17.7 34.9448 17.6853 34.9471C17.5344 34.9734 17.3528 34.9757 17.1758 35.0042C17.0453 34.9003 16.7866 34.9483 16.6096 34.9471C16.402 34.946 16.1932 34.9448 15.9867 34.9471C15.9493 34.9471 15.9107 34.9471 15.8733 34.9471C15.6441 34.9517 15.3116 34.9117 15.1074 34.9471C14.9848 34.9688 15.0075 35.0259 14.9667 35.0602C14.9122 34.9517 14.8884 34.9506 14.7738 34.9426C14.4686 34.9209 14.1758 34.9483 13.8899 35.0031C13.874 35.0065 13.8491 35.0054 13.8332 35.0031C13.8275 34.9757 13.8037 34.9494 13.7764 34.946C13.5858 34.9186 13.3033 34.946 13.0968 34.946C13.0401 34.946 12.9833 34.9471 12.9266 34.946C12.8517 34.9448 12.7757 34.9494 12.6997 34.946C12.6804 34.946 12.6622 34.946 12.6429 34.946C12.2776 34.9266 11.5843 34.9403 11.5128 34.4584C11.4663 34.1444 11.4039 33.2995 11.5004 33.0288C11.5378 32.9249 11.7386 32.8656 11.6785 32.6657C11.3313 32.6166 11.0261 32.4522 10.7163 32.322C10.6471 32.2935 10.5824 32.2809 10.5461 32.265C10.469 32.2307 10.3964 32.1862 10.3192 32.1508C10.2818 32.1336 10.2443 32.1119 10.2057 32.0937C10.09 32.0389 9.97995 31.9795 9.86535 31.9224C9.8279 31.9041 9.78933 31.8847 9.75188 31.8653C9.65544 31.8162 9.56353 31.7454 9.46822 31.694C9.39107 31.6518 9.31845 31.6484 9.29803 31.6369C9.20499 31.5844 9.10854 31.5205 9.01437 31.4657C8.93267 31.4189 8.86006 31.4177 8.84417 31.4086L8.85325 31.4097ZM18.1925 33.1293C18.0756 33.0985 17.9565 33.0699 17.8339 33.062C17.2144 33.0186 16.1637 32.9615 15.5635 33.0049C15.2038 33.0311 14.7953 33.1841 14.4323 33.183C13.9614 33.183 13.3805 33.0448 12.9016 33.0071C12.6838 32.99 11.9213 32.909 11.7761 32.9581C11.6706 32.9934 11.6377 33.215 11.6274 33.3212C11.6093 33.5107 11.6808 34.5109 11.7693 34.6034C12.0075 34.8512 13.5688 34.7679 13.9807 34.7736C15.003 34.785 16.0707 34.8478 17.0964 34.8364C17.2847 34.8341 17.8339 34.7724 17.9984 34.7165C18.2049 34.6457 18.2276 34.3659 18.2492 34.1707C18.2866 33.8213 18.2435 33.473 18.1913 33.1305L18.1925 33.1293ZM24.4897 36.8277C24.3887 37.3416 23.1236 37.1532 22.7026 37.168C19.9682 37.2651 17.3778 37.1029 14.6626 37.0538C12.5499 37.0161 10.41 37.0995 8.3143 37.0561C7.77308 37.0447 6.21068 37.0561 5.80902 36.7901C5.53444 36.6085 5.59684 36.2386 5.48224 35.9725C5.36878 36.2625 4.98414 36.7341 4.90925 37.0024C4.87294 37.1338 4.93648 37.1338 4.94329 37.1714C4.94669 37.1863 4.94556 37.2262 4.94329 37.2285C4.93081 37.2411 4.84117 37.2205 4.7833 37.3222C4.64828 37.5608 4.64942 38.3327 4.66076 38.625C4.66871 38.8465 4.8094 39.5556 4.77082 39.7052C4.76402 39.7314 4.6948 39.8205 4.66076 39.768C4.55865 39.6949 4.62105 39.1046 4.51893 38.9401C4.10933 39.6572 3.66796 40.3492 3.5908 41.1998C3.42855 42.9868 3.46145 45.0204 3.41266 46.8382C3.39791 47.3875 3.28331 47.9892 3.3616 48.5442C3.43989 49.0991 4.00267 49.147 4.4622 49.2053C6.22543 49.4268 8.46861 49.2692 10.2999 49.3172C14.7647 49.4359 19.2488 49.6061 23.7272 49.7168C24.442 49.734 25.655 49.9486 26.287 49.5604C26.8554 49.211 26.5491 47.7586 26.5275 47.1831C26.4583 45.3721 26.5468 43.3602 26.4163 41.5926C26.4061 41.4545 26.3221 40.8082 26.2189 40.7648C26.1179 41.0149 25.8286 41.0149 25.6232 41.1348C25.8547 41.2992 26.1882 41.5321 26.1905 41.8473L25.5143 41.1861C25.4439 40.9612 26.1122 40.8287 26.2495 40.6746C26.0691 40.2555 25.9579 39.5442 25.6243 39.2245C25.6754 38.9459 25.5029 38.7415 25.4541 38.4834L25.3679 39.0269C25.3713 39.0566 25.4314 39.148 25.4541 39.1674C25.4394 39.2062 25.411 39.2427 25.3974 39.2816C25.3724 39.3558 25.3974 39.3364 25.3974 39.3386C25.394 39.3569 25.4008 39.3775 25.3974 39.3957C25.3827 39.4871 25.3532 39.5613 25.3407 39.6812C25.3384 39.6995 25.3429 39.7189 25.3407 39.7383C25.3373 39.776 25.3441 39.8148 25.3407 39.8525C25.3373 39.8902 25.3429 39.929 25.3407 39.9667C25.3384 40.0043 25.3418 40.0432 25.3407 40.0808C25.2556 40.2042 25.2283 39.9872 25.2249 39.9415C25.1659 39.1091 25.3429 38.2824 25.2272 37.458C25.0831 37.4649 25.0252 37.5962 24.888 37.6579C24.3615 37.8965 23.3755 37.6613 22.7911 37.6853L22.8751 37.5711C23.4855 37.5562 24.256 37.7515 24.8437 37.5562C24.947 37.522 25.0207 37.3701 25.1693 37.3975C25.2045 37.3587 25.0842 37.0801 25.0582 37.0002C25.0014 36.8289 24.9186 36.7341 24.8948 36.669C24.7915 36.3859 24.7779 36.0399 24.5771 35.8024C24.5044 36.105 24.5498 36.5354 24.492 36.8289L24.4897 36.8277Z" fill="var(--fill-0, #3854A4)"/>
<path id="Vector_2" d="M13.7822 25.0794C13.9512 24.9926 13.9921 25.1273 14.0953 25.1353C14.1918 25.1422 14.2848 25.0794 14.3779 25.0794C14.8533 25.0794 16.0083 25.0896 16.385 25.3386C16.5836 25.4699 16.7198 25.7702 16.587 25.9917C16.5382 26.0728 16.2228 26.1755 16.1161 26.2018C15.1823 26.4404 14.1997 26.3708 13.25 26.2692C13.1025 26.2532 12.9675 26.1755 12.8189 26.1618C12.8518 26.606 12.6963 26.9919 12.4785 27.3596C12.4388 27.387 12.4399 27.4441 12.4218 27.4738C12.3979 27.4818 12.255 27.4932 12.2527 27.4452C12.3991 27.242 12.5227 27.0342 12.592 26.7887C12.6453 26.7853 12.6532 26.7168 12.6487 26.6745C12.6396 26.5866 12.6056 26.4872 12.592 26.389C12.7542 26.4153 12.6861 26.3559 12.7134 26.2577C12.7678 26.0579 12.7497 25.8375 12.8518 25.6526C12.9301 25.5098 13.2319 25.3386 13.3851 25.1913C13.6245 25.3306 13.6789 25.1307 13.7822 25.0771V25.0794Z" fill="var(--fill-0, #3854A4)"/>
<path id="Vector_3" d="M12.4782 27.3607C12.5826 27.419 12.6098 27.1449 12.704 27.2466C12.7607 27.3071 12.4759 27.6531 12.4351 27.7455C12.0958 28.5163 12.7812 29.0872 12.6473 29.8694C12.5157 30.0429 12.5225 29.4697 12.5088 29.4103C12.3352 28.6419 11.937 28.2913 12.4215 27.4738C12.4555 27.4624 12.4623 27.3859 12.4782 27.3596V27.3607Z" fill="var(--fill-0, #3854A4)"/>
<path id="Vector_4" d="M9.81531 18.862C9.85615 18.6417 10.0366 18.1849 10.1727 18.0239C10.5006 17.6368 11.1769 17.4998 11.3868 16.8798C11.4356 16.7337 11.4889 16.1536 11.5161 16.1251C11.591 16.0463 11.6228 16.1308 11.6307 16.2118C11.6409 16.3123 11.5842 16.7165 11.5581 16.8239C11.3561 17.6448 10.5142 17.7762 10.1455 18.4236C9.99912 18.6816 9.85048 19.2297 9.77219 19.5312C9.75177 19.6088 9.82438 19.6899 9.79035 19.7732C9.76765 19.8292 9.64511 19.8965 9.59859 19.9822C9.36713 20.4092 9.52938 21.5385 9.53619 22.0866C9.53846 22.2636 9.47151 22.4063 9.48059 22.5879C9.50328 23.048 9.7529 23.4203 9.92991 23.8233C9.81644 23.8519 9.73134 23.6703 9.68029 23.5904C9.27522 22.951 9.37393 22.5901 9.36599 21.9153C9.35124 20.6445 9.21395 20.48 9.70298 19.2605C9.72794 19.2514 9.75404 19.2286 9.75971 19.2035C9.76765 19.1692 9.75177 19.1235 9.75971 19.0893C9.77673 19.0162 9.81644 19.0036 9.81644 18.8609L9.81531 18.862Z" fill="var(--fill-0, #3854A4)"/>
<path id="Vector_5" d="M16.4449 19.6042C16.8182 19.2982 17.3753 19.6282 17.238 20.1169C17.4082 20.1135 17.5681 20.0416 17.7349 20.0187C17.7962 20.0107 17.9301 19.9559 17.9176 20.0598C17.7338 20.1603 17.4944 20.1557 17.3185 20.2277C17.2391 20.2597 16.5617 20.5999 16.5277 20.6296C16.404 20.7381 16.3734 20.9585 16.2486 21.0909C16.0171 21.3364 15.6665 21.3581 15.7641 21.8868C15.7402 21.8731 15.6801 21.8868 15.5939 21.8297C15.6245 21.6321 15.6642 21.3981 15.7527 21.2188C15.8537 21.0121 16.2157 20.713 16.261 20.5314C16.3121 20.3282 16.1884 20.1774 16.2259 19.989C16.2327 19.9536 16.4267 19.6191 16.4437 19.6042H16.4449Z" fill="var(--fill-0, #3854A4)"/>
<path id="Vector_6" d="M19.3904 14.7C19.7308 14.9501 20.1019 15.1956 20.2687 15.6124C20.3969 15.9332 20.3163 16.1616 20.3787 16.471C20.4366 16.7542 20.9835 17.5546 20.693 17.8367C20.6102 17.9166 20.5909 17.8321 20.5807 17.7522C20.558 17.574 20.6056 17.3799 20.5682 17.1938C20.5274 16.994 20.3152 16.8193 20.2664 16.5852C20.1836 16.1856 20.3004 15.9972 20.0814 15.5735C19.8625 15.1499 19.4937 14.8234 18.9956 14.8702C19.0194 14.7765 19.1613 14.7743 19.2509 14.7C19.9464 14.1314 20.2777 13.0535 19.8341 12.2291C19.5039 11.6159 19.2509 11.5531 18.6234 11.3921C18.5293 11.3682 18.4578 11.4504 18.4861 11.2768C19.5538 11.2471 20.2653 12.2245 20.1847 13.2431C20.1461 13.7352 19.8364 14.4614 19.3927 14.6989L19.3904 14.7Z" fill="var(--fill-0, #3854A4)"/>
<path id="Vector_7" d="M9.07908 12.1891L8.69331 12.6835C8.02727 13.7363 8.71827 14.8953 9.2697 15.819C9.29239 15.8579 9.38316 15.8807 9.43195 15.9675C9.66115 16.3671 9.81773 16.9757 9.36274 17.2646C9.46713 16.8524 9.58967 16.4254 9.27764 16.068C9.07341 16.2575 8.98718 16.4653 8.90889 16.7245C8.88279 16.8113 8.97356 16.8958 8.79656 16.865C8.72961 16.4699 9.03824 16.2038 9.25268 15.9264L8.62636 15.0414C8.46978 15.5713 7.92175 15.7734 7.65057 16.2552C7.46563 16.5852 7.46449 16.8947 7.38053 17.2406C7.3567 17.3377 7.43613 17.4062 7.26593 17.3788C7.23303 16.8433 7.3567 16.3717 7.69029 15.9526C7.93196 15.6478 8.62863 15.223 8.55942 14.7994C8.49474 14.4043 8.20428 14.0892 8.24172 13.5479C8.27122 13.1174 8.60027 12.2702 9.07795 12.1903L9.07908 12.1891Z" fill="var(--fill-0, #3854A4)"/>
<path id="Vector_8" d="M4.03776 19.7744C4.10583 18.4179 4.63004 17.1207 5.33918 15.98C5.70113 15.3977 6.18336 14.8976 6.54304 14.3404C6.75862 14.0047 6.86641 13.5867 7.15234 13.3298C6.83123 14.41 5.97231 15.2024 5.39592 16.1513C4.58579 17.4838 4.57671 18.1849 4.15916 19.5837C4.13647 19.6602 4.1376 19.7572 4.03776 19.7744Z" fill="var(--fill-0, #3854A4)"/>
<path id="Vector_9" d="M22.8466 15.7825C22.8296 15.8887 22.6118 16.0314 22.5823 16.0851C22.0773 16.9849 22.1466 16.9198 21.4 17.662C21.1413 17.9189 20.92 18.2021 20.6636 18.4613C20.5445 18.4921 20.608 18.395 20.5513 18.3482L20.3527 18.548L20.7725 18.9226C20.9563 19.3291 20.9495 19.7595 20.844 20.1866C20.819 20.2882 20.8326 20.3761 20.692 20.3442C20.7362 19.9045 20.8213 19.4741 20.6466 19.0504C20.2676 18.1324 20.0872 19.1384 19.5596 19.119C19.8716 18.8655 20.1417 18.5617 20.4389 18.2934C20.8667 17.9063 21.3761 17.5603 21.7426 17.0956C22.0796 16.6686 22.2657 15.9367 22.8455 15.7825H22.8466Z" fill="var(--fill-0, #3854A4)"/>
<path id="Vector_10" d="M12.2923 19.5015C12.9901 19.3393 13.1228 20.1729 12.6916 20.359C11.9451 20.6799 11.6864 19.6431 12.2923 19.5015Z" fill="var(--fill-0, #3854A4)"/>
<path id="Vector_11" d="M12.3647 19.0904C12.4759 19.0801 12.5928 19.0984 12.7051 19.0904C12.7244 19.0893 12.7437 19.0927 12.7618 19.0904C12.7981 19.087 12.8446 19.0984 12.8753 19.0904C12.9002 19.103 12.9127 19.1304 12.932 19.1475C13.1533 19.3405 13.362 19.4706 13.5549 19.7173C13.5527 19.7995 13.5186 19.9365 13.4165 19.8292C13.3064 19.7139 13.286 19.5677 13.1226 19.441C12.7845 19.1783 12.3363 19.1544 11.9562 19.3336C11.8836 19.3679 11.373 19.7504 11.3537 19.7835C11.2891 19.8931 11.575 20.3247 11.6726 20.4035C11.8677 20.5622 12.0822 20.5463 12.2989 20.6148C12.3953 20.6456 12.4475 20.5908 12.4226 20.7438C12.0232 20.7575 11.6521 20.6467 11.4127 20.3065C11.3265 20.1831 11.2505 19.9011 11.2323 19.8874C11.2153 19.8749 10.8681 20.021 10.8375 19.8315C11.5171 19.7081 11.6033 19.1601 12.367 19.0893L12.3647 19.0904Z" fill="var(--fill-0, #3854A4)"/>
<path id="Vector_12" d="M13.4416 24.0528C13.4314 24.0894 13.4711 24.1716 13.411 24.1682C12.897 24.2241 12.8073 23.6623 12.9038 23.2558C12.7971 23.3438 12.602 23.6817 12.5918 23.7994C12.5895 23.8222 12.8005 23.8016 12.6496 24.0117C12.6065 24.0723 12.5157 24.086 12.4783 24.1362C12.3149 24.3531 12.1844 24.7254 11.8554 24.7368C11.8792 24.6306 12.0176 24.6683 12.1061 24.5621C12.3603 24.2549 12.484 23.5253 12.7359 23.257C12.8391 23.1474 12.9242 23.1531 13.0172 23.0834C13.091 23.0275 13.1863 22.8813 13.2442 22.8562C13.4949 22.7489 13.1057 23.1816 13.0899 23.2136C12.8902 23.6212 13.0025 23.9501 13.4416 24.0528C13.6107 23.4317 14.0293 23.8302 14.3482 24.0528C14.4185 24.1019 14.4219 24.1739 14.5728 24.2024C14.7056 24.2275 14.7589 24.175 14.8576 24.167C14.8644 24.167 14.8985 24.215 14.9336 24.207C15.2979 24.1316 15.8572 23.4031 16.1046 24.1099C15.931 24.1408 15.7517 24.1419 15.5951 24.167C15.577 24.1705 15.5566 24.1647 15.5384 24.167C15.5225 24.0745 15.4057 24.0962 15.3682 24.167C14.987 24.2664 14.9529 24.5244 14.406 24.3086C13.9692 24.1373 13.8818 24.1556 13.4427 24.0528H13.4416Z" fill="var(--fill-0, #3854A4)"/>
<path id="Vector_13" d="M13.4983 15.0415C13.5471 15.0277 14.0724 14.9341 13.8954 15.0974C13.8727 15.118 13.2521 15.3075 13.386 15.0974C13.3905 15.0917 13.4711 15.0826 13.4994 15.0403L13.4983 15.0415Z" fill="var(--fill-0, #3854A4)"/>
<path id="Vector_14" d="M13.4985 15.0415C13.4339 15.0597 13.4384 15.0552 13.3851 15.0985C13.2489 15.2093 13.2399 15.4274 13.0413 15.5804C12.6793 15.8601 12.373 15.8179 11.9293 16.2255C11.7104 16.4265 11.7251 16.2689 11.8556 16.0977C12.2175 15.6238 12.7588 15.6957 13.0299 15.4263C13.0867 15.3703 13.1604 15.1534 13.2489 15.0472C13.5757 14.6509 13.8968 14.5036 13.7686 13.8859C13.7391 13.7409 13.3499 13.1974 13.3851 13.1608C13.5076 13.1323 13.511 13.2294 13.5666 13.291C13.8911 13.6461 14.0886 14.1051 13.8492 14.5687C13.7822 14.7 13.6029 14.885 13.4974 15.0426L13.4985 15.0415Z" fill="var(--fill-0, #3854A4)"/>
<path id="Vector_15" d="M15.4249 27.1895C15.4351 27.3322 15.4385 27.2865 15.3398 27.3014C14.9699 27.3573 14.76 27.2386 14.6034 27.6451C14.2324 28.6145 14.6647 28.9228 14.5694 29.665C14.5603 29.7381 14.4094 30.2256 14.2914 30.0977C14.263 30.0669 14.389 29.8157 14.3992 29.7232C14.482 28.9787 13.9805 28.3861 14.4627 27.5195C14.4752 27.4966 14.7611 27.2066 14.7827 27.1998C14.9551 27.1461 15.2343 27.2157 15.4237 27.1895H15.4249Z" fill="var(--fill-0, #3854A4)"/>
<path id="Vector_16" d="M26.0757 19.4901L26.0189 19.6042C26.0121 19.5688 26.0257 19.5243 26.0189 19.4901L25.9622 19.433C25.7466 18.4613 25.2122 16.6423 24.6948 15.8327C24.671 15.7951 24.2693 15.3349 24.5167 15.4411C24.966 15.6329 25.5946 17.6163 25.7523 18.1335C25.8964 18.6074 25.9804 19.0116 26.0757 19.4901Z" fill="var(--fill-0, #3854A4)"/>
<path id="Vector_17" d="M16.614 31.581C16.2805 31.3366 16.6129 30.9176 16.6572 30.6264C16.7547 29.9927 16.3213 29.6855 16.2793 29.1489C16.2521 28.8006 16.3633 28.3564 16.3338 27.9568C16.3179 27.7444 16.2339 27.5674 16.2192 27.3596C16.7332 27.8791 16.3519 28.6784 16.4484 29.3236C16.4926 29.6159 16.7513 29.9082 16.7842 30.2393C16.8364 30.7429 16.5482 31.082 16.614 31.5799V31.581Z" fill="var(--fill-0, #3854A4)"/>
<path id="Vector_18" d="M23.0723 13.6724C22.3711 12.8183 21.4736 12.2314 20.5046 11.7233L19.1634 11.0496C19.2826 11.0324 19.3768 11.0553 19.4868 11.093C20.314 11.3807 22.5719 12.6835 22.9951 13.4349C23.0394 13.5137 23.0927 13.5696 23.0711 13.6712L23.0723 13.6724Z" fill="var(--fill-0, #3854A4)"/>
<path id="Vector_19" d="M10.6085 31.4668L10.5518 31.5239C9.3638 31.0078 8.63309 30.6344 7.66184 29.7278C7.59149 29.6616 7.08885 29.1923 7.15352 29.1283C7.26018 29.1043 7.28741 29.1888 7.35208 29.2425C7.85586 29.665 8.29837 30.1617 8.8464 30.5328C9.39443 30.9039 10.0242 31.1585 10.6096 31.4668H10.6085Z" fill="var(--fill-0, #3854A4)"/>
<path id="Vector_20" d="M15.7644 27.9876C15.7871 28.5014 16.1445 28.9822 16.149 29.4994C16.1547 30.2165 15.4955 30.8422 15.8665 31.5639C15.9391 31.7054 16.098 31.7625 16.1036 31.9224C15.7712 31.8562 15.6044 31.3172 15.5999 31.0329C15.5942 30.6355 15.9482 30.1754 15.9902 29.7266C16.0548 29.0358 15.7383 28.7527 15.6554 28.1817C15.6384 28.063 15.6067 27.9534 15.7632 27.9865L15.7644 27.9876Z" fill="var(--fill-0, #3854A4)"/>
<path id="Vector_21" d="M19.5608 22.7409L19.4473 23.0263C19.3974 22.5959 19.5438 22.1825 19.5608 21.7714C19.588 21.1217 19.2715 20.7632 19.2204 20.2311C19.2023 20.0393 19.2647 19.5928 19.4462 19.4901C19.4871 19.6933 19.3883 19.8886 19.394 20.0804C19.4076 20.5725 19.7072 21.0841 19.7185 21.5728C19.7265 21.9404 19.5687 22.3663 19.5608 22.742V22.7409Z" fill="var(--fill-0, #3854A4)"/>
<path id="Vector_22" d="M20.2973 30.0977C20.1543 30.1468 20.1282 29.939 20.1248 29.8397C20.0987 29.029 20.9747 28.973 21.188 28.2856C21.3378 27.8026 21.188 27.6348 21.112 27.1952C21.0972 27.1107 21.0416 27.057 21.1744 27.0753C21.3639 27.4178 21.4251 27.8951 21.348 28.2754C21.1834 29.0895 20.0488 29.0952 20.2962 30.0966L20.2973 30.0977Z" fill="var(--fill-0, #3854A4)"/>
<path id="Vector_23" d="M19.1634 28.0447C19.0284 28.0676 19.0341 28.023 19.0534 27.9054C19.0919 27.6725 19.3121 27.5023 19.3643 27.3059C19.5458 26.6277 18.8786 26.4644 18.8276 25.841C18.8174 25.7188 18.8741 25.6217 18.8593 25.4779C18.8355 25.2609 18.6846 25.0462 18.5984 24.8521C19.0851 25.012 18.9274 25.6868 19.0216 26.0511C19.1044 26.3742 19.5333 26.6151 19.5583 27.0559C19.5798 27.4567 19.1816 27.6611 19.1646 28.0459L19.1634 28.0447Z" fill="var(--fill-0, #3854A4)"/>
<path id="Vector_24" d="M16.7275 24.2801C16.7944 24.3086 17.111 24.5119 17.1802 24.5655C17.8667 25.0942 18.139 25.8992 17.8996 26.7442C17.8825 26.8035 17.8871 26.9166 17.8043 26.904V25.6777C17.8043 25.3351 17.4105 24.9994 17.1813 24.7939C17.1473 24.7631 17.1246 24.6888 17.0735 24.6477C16.8364 24.4582 16.5471 24.4102 16.2759 24.2801C16.3349 24.1453 16.6299 24.239 16.7286 24.2801H16.7275Z" fill="var(--fill-0, #3854A4)"/>
<path id="Vector_25" d="M20.0602 22.2967C20.0806 22.3081 20.2553 22.5719 20.3529 22.6552C20.8272 23.0629 21.2141 23.1702 21.2617 23.9067C21.2924 24.3863 21.07 24.7756 21.2027 25.2495C21.053 25.302 21.0393 25.0211 21.0337 24.9355C20.9974 24.376 21.2651 24.1271 21.0212 23.5219C20.8272 23.0423 20.3211 22.8836 20.0136 22.4828C19.9138 22.3515 19.8412 22.1688 20.0602 22.2967Z" fill="var(--fill-0, #3854A4)"/>
<path id="Vector_26" d="M7.83326 23.4248C7.93425 23.5287 7.33743 23.8953 7.26708 23.9672C6.99136 24.2527 6.75876 24.8293 6.75422 25.2244C6.74968 25.6411 6.95052 26.1573 6.52956 26.5044C6.53524 26.2475 6.68841 25.9883 6.69295 25.7279C6.70657 24.9412 6.56814 24.497 7.20921 23.853C7.29545 23.8073 7.77994 23.3723 7.83213 23.4248H7.83326Z" fill="var(--fill-0, #3854A4)"/>
<path id="Vector_27" d="M22.4497 27.7593C22.2863 27.7867 22.3555 27.7239 22.3283 27.6279C22.2545 27.3676 22.1967 27.0296 22.2228 26.7613C22.2829 26.1424 22.7549 25.8432 22.4622 25.0953C22.3964 24.9275 22.25 24.8464 22.2239 24.6797C23.1861 25.1878 22.4111 26.2086 22.3408 26.8835C22.3135 27.1438 22.4327 27.4921 22.4497 27.7593Z" fill="var(--fill-0, #3854A4)"/>
<path id="Vector_28" d="M24.2628 22.6267C24.0597 23.3917 24.7961 23.837 24.8811 24.4845C24.9311 24.8601 24.8811 25.318 24.6871 25.648C24.5544 25.6674 24.6111 25.6126 24.6247 25.5281C24.6837 25.1798 24.8097 25.0006 24.7666 24.5986C24.711 24.0871 24.3138 23.7674 24.1777 23.3106C24.1266 23.1394 23.9734 22.6255 24.2639 22.6255L24.2628 22.6267Z" fill="var(--fill-0, #3854A4)"/>
<path id="Vector_29" d="M8.22928 25.3066C8.07724 25.6594 7.82308 25.9574 7.67104 26.3125C7.3976 26.9508 7.35334 27.4167 7.49291 28.1007C7.19563 27.7764 7.24328 27.25 7.33973 26.8344C7.49744 26.1572 7.98988 25.7302 8.17255 25.1924L8.22928 25.3066Z" fill="var(--fill-0, #3854A4)"/>
<path id="Vector_30" d="M16.614 10.2503V10.3074C16.0682 10.1943 14.8485 10.2217 14.2608 10.248C13.993 10.2606 13.5028 10.4638 13.3281 10.2514C13.58 10.2412 13.8466 10.1589 14.094 10.1372C14.8667 10.071 15.8561 10.0881 16.614 10.2503Z" fill="var(--fill-0, #3854A4)"/>
<path id="Vector_31" d="M24.7154 18.6337C24.5475 18.6611 24.5702 18.3848 24.4987 18.2534C24.1889 17.6837 23.7022 17.6391 23.4321 17.2167C23.237 16.9095 23.1303 16.4825 23.0725 16.1251C23.2086 15.9675 23.3368 16.6823 23.3538 16.7257C23.6137 17.4005 23.6511 17.2246 24.1209 17.6083C24.4159 17.8504 24.6973 18.2432 24.7154 18.6348V18.6337Z" fill="var(--fill-0, #3854A4)"/>
<path id="Vector_32" d="M15.9344 19.433C16.1533 19.3507 16.3077 19.1726 16.5437 19.1064C17.1734 18.9294 17.8281 19.2251 18.0868 19.8326C17.7827 19.7344 17.6749 19.393 17.3674 19.2742C17.0792 19.1635 16.9011 19.1966 16.614 19.2628C16.3599 19.3211 16.2078 19.3907 16.0478 19.6054C15.982 19.6933 15.9242 19.7904 15.8776 19.8908C15.7324 19.7915 15.9525 19.5654 15.9344 19.4341V19.433Z" fill="var(--fill-0, #3854A4)"/>
<path id="Vector_33" d="M21.8834 22.2841C21.3433 21.6276 22.0468 21.1412 21.5907 20.3259C21.4261 20.0324 21.105 19.8509 20.978 19.546C21.3218 19.7367 21.7472 20.1889 21.8448 20.5828C21.9935 21.1834 21.6758 21.6892 21.8834 22.283V22.2841Z" fill="var(--fill-0, #3854A4)"/>
<path id="Vector_34" d="M20.0703 31.4109C19.3407 32.0286 18.2254 32.2364 17.295 32.3232C17.2678 32.1485 17.3381 32.2318 17.4357 32.2113C17.9429 32.1051 18.517 32.0149 19.006 31.8516C19.377 31.7271 19.6913 31.4919 20.0703 31.412V31.4109Z" fill="var(--fill-0, #3854A4)"/>
<path id="Vector_35" d="M19.8446 27.0753C20.1555 26.4553 19.5541 26.0716 19.4611 25.608C19.3794 25.1993 19.4781 24.7391 19.2489 24.3383C19.6755 24.6443 19.5008 25.1182 19.5859 25.5384C19.6767 25.9871 20.2508 26.4085 20.0182 26.9371C19.9807 27.0228 19.9569 27.0958 19.8446 27.0742V27.0753Z" fill="var(--fill-0, #3854A4)"/>
<path id="Vector_36" d="M4.60408 24.851C4.82874 25.4699 5.1158 26.2041 5.44485 26.7716C5.5186 26.8994 6.02124 27.5195 5.96451 27.5891C5.87941 27.6907 5.83856 27.5069 5.81701 27.4829C5.15778 26.7305 4.8537 25.8421 4.54848 24.9092L4.60521 24.8521L4.60408 24.851Z" fill="var(--fill-0, #3854A4)"/>
<path id="Vector_37" d="M21.5996 23.0252L20.6908 21.5739C20.5796 21.438 20.5864 20.4652 20.7225 20.4595L20.7895 21.4175C20.979 21.9884 21.5781 22.3892 21.5996 23.0252Z" fill="var(--fill-0, #3854A4)"/>
<path id="Vector_38" d="M8.96532 17.8926L8.51373 18.379C8.23234 18.7113 8.06328 19.0493 7.96003 19.4752C7.9067 19.6967 7.96797 20.0781 7.77622 20.2311C7.70587 19.3211 8.1098 18.2831 8.96532 17.8926Z" fill="var(--fill-0, #3854A4)"/>
<path id="Vector_39" d="M17.0112 28.0733C16.9976 27.9922 16.8898 27.8129 16.8421 27.7307C16.9045 27.6382 16.9658 27.7433 17.0033 27.7969C17.3334 28.2685 17.0702 28.7618 17.1406 29.2562C17.1905 29.6067 17.4333 29.834 17.4685 30.1811C17.4741 30.237 17.5048 30.4528 17.4095 30.4403C17.4878 30.1366 17.0123 29.5942 17.0123 29.3852C17.0123 29.0153 17.0668 28.4044 17.0123 28.0733H17.0112Z" fill="var(--fill-0, #3854A4)"/>
<path id="Vector_40" d="M18.2569 20.0598C18.0697 20.5919 17.727 21.0555 17.1359 21.132C16.9487 21.156 16.8477 21.0624 16.6571 21.156C16.4665 21.2496 16.4472 21.4517 16.2747 21.5431C16.4075 20.5862 17.6873 21.3375 17.9177 20.3738L18.2569 20.0598Z" fill="var(--fill-0, #3854A4)"/>
<path id="Vector_41" d="M15.425 20.3453C15.4216 20.3567 15.3127 20.3738 15.3104 20.4869C15.3104 20.5291 15.4318 20.5405 15.425 20.5737C15.4239 20.5805 15.3354 20.5942 15.3229 20.6639C15.2968 20.8203 15.3705 21.4232 15.3683 21.6573C15.366 21.816 15.4136 21.8971 15.2548 22.0569C15.2003 21.776 15.1357 20.1146 15.2253 19.9456C15.3308 19.747 15.4375 20.3053 15.425 20.3453Z" fill="var(--fill-0, #3854A4)"/>
<path id="Vector_42" d="M11.5151 25.9917C11.4958 26.5272 11.8441 27.0353 11.8588 27.5594C11.8623 27.6793 11.7261 28.3987 11.6852 28.4444C11.4776 28.6704 11.6818 27.9442 11.6852 27.902C11.7431 27.1723 11.4413 26.8538 11.4039 26.2475C11.397 26.131 11.3449 25.9483 11.5162 25.9917H11.5151Z" fill="var(--fill-0, #3854A4)"/>
<path id="Vector_43" d="M7.37922 21.6002C7.19655 22.3652 6.33876 22.5502 5.84973 23.1108C5.74421 23.2319 5.71811 23.4876 5.51047 23.4808C5.72946 22.8859 6.27295 22.5468 6.78354 22.2248L7.37922 21.599V21.6002Z" fill="var(--fill-0, #3854A4)"/>
<path id="Vector_44" d="M13.5538 31.1242C13.4608 31.1083 13.4494 31.0146 13.4245 30.9416C13.1102 30.0452 13.4857 29.2128 14.0077 28.5003C13.9623 29.0107 13.5164 29.3738 13.446 29.9025C13.3893 30.3341 13.5277 30.7041 13.5538 31.1242Z" fill="var(--fill-0, #3854A4)"/>
<path id="Vector_45" d="M16.8409 15.5541C16.8148 15.5233 16.2078 15.3155 16.0921 15.2527C15.7324 15.0574 15.4907 14.772 15.4238 14.3575L15.7891 14.8736C16.201 15.2344 16.7615 15.3452 17.2936 15.384V15.4982C17.2074 15.5107 16.9828 15.5119 16.8965 15.4982C16.8886 15.497 16.8852 15.4262 16.8409 15.4411V15.5553V15.5541Z" fill="var(--fill-0, #3854A4)"/>
<path id="Vector_46" d="M9.02225 20.858C8.95644 20.1215 8.34714 19.3964 8.88155 18.6337C9.02565 18.612 8.95984 18.7296 8.94055 18.8084C8.89403 19.0036 8.79078 19.1863 8.79418 19.401C8.79986 19.8383 9.11188 20.343 9.13571 20.858H9.02225Z" fill="var(--fill-0, #3854A4)"/>
<path id="Vector_47" d="M10.0434 25.2495L10.3282 24.9355L10.3838 24.7939C10.7196 24.8167 10.183 25.2198 10.1659 25.3454L9.92993 25.9335C9.76995 25.4436 9.97872 24.98 10.1489 24.5301C10.1761 24.4582 10.1614 24.3554 10.2681 24.3372C10.3225 24.6717 10.1013 24.9366 10.0423 25.2495H10.0434Z" fill="var(--fill-0, #3854A4)"/>
<path id="Vector_48" d="M18.2559 17.6654C18.2695 17.6768 18.3558 17.8938 18.4284 17.9771C18.7563 18.3562 19.2839 18.6828 19.2192 19.2617C19.0683 19.2902 19.1205 19.2297 19.0808 19.1475C18.9821 18.9443 18.9061 18.7307 18.7665 18.5492C18.5986 18.3299 18.105 17.992 18.1424 17.6939C18.1492 17.6437 18.2446 17.6563 18.2548 17.6654H18.2559Z" fill="var(--fill-0, #3854A4)"/>
<path id="Vector_49" d="M7.20897 17.9497C7.19989 18.2454 6.98885 18.6554 6.75284 18.8301C6.28991 19.1715 6.1061 19.0836 5.80769 19.707C5.77025 19.7846 5.84286 19.8634 5.67948 19.8315C5.64884 19.0927 6.44536 19.0082 6.78688 18.6371C6.92871 18.483 7.00019 18.266 7.08189 18.0753C7.11706 17.9931 7.04558 17.9189 7.20897 17.9497Z" fill="var(--fill-0, #3854A4)"/>
<path id="Vector_50" d="M22.4494 17.4941C22.497 17.5387 22.649 18.0559 22.7103 18.1724C22.9611 18.6439 23.2606 18.5891 23.3094 19.2354C23.3117 19.2663 23.4603 19.2354 23.4138 19.4558C23.4036 19.5038 23.2345 19.4478 23.3559 19.6602C23.1562 19.7013 23.2583 19.3176 23.2379 19.1806C23.1778 18.7798 22.6706 18.4201 22.4789 17.9486C22.4539 17.8881 22.236 17.292 22.4494 17.493V17.4941Z" fill="var(--fill-0, #3854A4)"/>
<path id="Vector_51" d="M5.67977 26.3331C5.55383 26.2566 5.51071 26.0122 5.48121 25.8775C5.34052 25.2495 5.3269 24.4228 5.79324 23.9375C5.7036 24.3269 5.51525 24.6968 5.50617 25.1068C5.4971 25.5167 5.66502 25.9289 5.67977 26.3331Z" fill="var(--fill-0, #3854A4)"/>
<path id="Vector_52" d="M17.1237 15.7254C16.9932 16.5053 17.4947 16.8307 18.0371 17.2315C18.0643 17.252 18.247 17.2954 18.1437 17.3788C17.986 17.5044 17.1929 16.7622 17.1021 16.5749C16.9977 16.3591 16.9807 16.0474 17.0113 15.8099C17.0216 15.7266 17.0545 15.6329 17.1248 15.7254H17.1237Z" fill="var(--fill-0, #3854A4)"/>
<path id="Vector_53" d="M11 16.6903C10.9807 16.7028 10.84 16.7188 10.8355 16.6674C11.1305 16.1993 11.0772 15.6912 10.8786 15.1967C10.8378 15.0951 10.5575 14.6966 10.6086 14.6429C10.6778 14.5699 10.7595 14.7354 10.7878 14.7754C11.0613 15.1568 11.2315 15.6763 11.1691 16.149C11.16 16.2187 11.0227 16.6754 10.9989 16.6903H11Z" fill="var(--fill-0, #3854A4)"/>
<path id="Vector_54" d="M17.6898 27.1895C17.7805 27.282 17.8202 27.9134 17.7987 28.0687C17.7624 28.3336 17.5559 28.5608 17.5252 28.82C17.5025 29.0176 17.5525 29.1078 17.574 29.2756C17.5967 29.4583 17.4311 29.3601 17.4084 29.0998C17.355 28.514 17.6376 28.3736 17.6875 27.9522C17.7181 27.6862 17.6308 27.5035 17.5899 27.2603C17.5706 27.1461 17.6603 27.1575 17.6909 27.1883L17.6898 27.1895Z" fill="var(--fill-0, #3854A4)"/>
<path id="Vector_55" d="M22.6198 24.1659C22.4189 24.1796 22.3928 23.8085 22.3894 23.6829C22.3769 23.1314 22.8841 22.7831 22.3361 22.2282C22.4836 22.114 22.7105 22.5388 22.7298 22.6587C22.8217 23.2239 22.285 23.5813 22.6198 24.167V24.1659Z" fill="var(--fill-0, #3854A4)"/>
<path id="Vector_56" d="M13.3849 20.2882C13.4348 20.2688 13.5846 20.2128 13.6118 20.2311C13.647 20.8808 13.116 21.0076 12.5929 21.1434C12.6009 20.8774 12.9152 20.9265 13.0706 20.7986C13.1659 20.7198 13.3679 20.4172 13.3849 20.2882Z" fill="var(--fill-0, #3854A4)"/>
<path id="Vector_57" d="M20.5797 24.2801C20.5729 25.004 21.0449 25.3306 20.9769 26.0773C20.953 26.3365 20.7885 26.4359 20.8112 26.2532C20.8259 26.1367 20.8713 26.0419 20.8691 25.906C20.86 25.3888 20.5173 25.0782 20.4742 24.5872C20.464 24.473 20.3982 24.2321 20.5797 24.2801Z" fill="var(--fill-0, #3854A4)"/>
<path id="Vector_58" d="M23.8667 19.4615C23.8656 19.4489 23.7748 19.3553 23.81 19.3188C23.9825 19.1464 24.0403 19.9068 24.0403 19.9742C24.0403 20.2163 23.9632 20.7312 23.8701 20.9482C23.8418 21.0144 23.7828 21.1571 23.6954 21.0578C23.6943 20.8842 23.8656 20.5771 23.8656 20.4309C23.8656 20.1329 23.8985 19.7435 23.8656 19.4615H23.8667Z" fill="var(--fill-0, #3854A4)"/>
<path id="Vector_59" d="M17.0114 12.8742C17.2848 13.0067 17.286 13.2876 17.2247 13.5742C17.1691 13.8357 16.7867 14.0126 17.2599 14.1405C17.337 14.1611 17.8374 14.088 17.691 14.2422C17.5288 14.4134 16.8117 14.2661 16.9081 13.887C16.9433 13.7489 17.1067 13.6541 17.1271 13.4166C17.143 13.2362 17.0885 13.0364 17.0114 12.8742Z" fill="var(--fill-0, #3854A4)"/>
<path id="Vector_60" d="M4.09355 19.8326L3.95285 21.9998C3.85868 21.9347 3.87116 21.8445 3.86435 21.7463C3.83031 21.2679 3.84279 20.4127 3.9642 19.9559C3.99143 19.8543 3.94831 19.8086 4.09355 19.8326Z" fill="var(--fill-0, #3854A4)"/>
<path id="Vector_61" d="M18.8799 27.9305H18.7108C19.041 27.1324 18.0505 26.783 18.0879 26.0488L18.3228 26.5238C18.7086 26.944 18.9809 27.3185 18.8799 27.9305Z" fill="var(--fill-0, #3854A4)"/>
<path id="Vector_62" d="M8.79632 25.8204H8.68286C8.68626 25.7645 8.67491 25.7017 8.68286 25.6491L8.73959 25.592C8.75661 25.5155 8.72484 25.4059 8.7827 25.3237L9.53157 23.9387C9.5293 24.6717 8.88028 25.0805 8.79518 25.8204H8.79632Z" fill="var(--fill-0, #3854A4)"/>
<path id="Vector_63" d="M9.02234 27.7022C9.06433 28.0847 9.27537 28.5266 9.5318 28.8155C9.60782 28.9011 10.1218 29.2745 10.0424 29.3555C9.49889 29.1078 9.03823 28.474 8.9225 27.8883C8.89867 27.7695 8.86236 27.6702 9.02234 27.7022Z" fill="var(--fill-0, #3854A4)"/>
<path id="Vector_64" d="M14.2349 18.4635C14.1521 18.7798 14.2054 19.1258 13.7255 19.1486C13.6869 19.1909 13.9195 19.538 13.9524 19.6042C13.8991 19.7435 13.8469 19.5026 13.8344 19.4946C13.8128 19.4821 13.696 19.5711 13.6699 19.5471C13.8968 19.2503 13.2399 18.9991 13.047 19.0916L12.9902 19.0345C13.0107 19.0185 13.0254 18.9488 13.047 18.9203C13.0912 18.934 13.1718 18.9066 13.2172 18.9203L13.2739 18.9774C13.9002 19.1247 14.0114 19.079 14.1237 18.4635H14.2372H14.2349Z" fill="var(--fill-0, #3854A4)"/>
<path id="Vector_65" d="M11.1112 27.2546C11.1361 27.2705 11.3199 27.7113 11.346 27.7878C11.4924 28.2091 11.6183 28.6899 11.3165 29.0724C11.304 28.7606 11.3823 28.4683 11.3313 28.1452C11.287 27.862 11.0862 27.5275 10.9489 27.2751C10.9534 27.2226 11.0873 27.2397 11.1112 27.2546Z" fill="var(--fill-0, #3854A4)"/>
<path id="Vector_66" d="M8.22931 24.851C8.22931 24.7174 8.17258 24.5792 8.16918 24.4251C8.15669 23.8016 8.50616 23.6429 8.91123 23.2821C8.95548 23.2421 8.95661 23.1496 8.96683 23.1405C9.00086 23.1097 9.10412 23.1177 9.07689 23.2227C9.01675 23.45 8.4812 23.6543 8.34277 24.167C8.30079 24.3235 8.20435 24.5278 8.34277 24.6809C8.34277 24.7379 8.34731 24.7962 8.34277 24.8521H8.22931V24.851Z" fill="var(--fill-0, #3854A4)"/>
<path id="Vector_67" d="M15.6518 19.2046C15.5383 19.1669 15.4123 19.1395 15.426 18.9762C15.5292 18.9477 15.561 19.0584 15.6381 19.0801C15.8787 19.1486 16.6582 18.5846 17.1529 18.6325C17.2005 18.6371 17.2141 18.7239 17.1495 18.7467C17.0383 18.7855 16.8148 18.7707 16.6627 18.8232C16.3904 18.9169 16.1011 19.1361 15.8231 19.2035C15.7255 19.2274 15.7641 19.2411 15.6529 19.2035L15.6518 19.2046Z" fill="var(--fill-0, #3854A4)"/>
<path id="Vector_68" d="M22.0163 19.2411C22.1161 19.3496 22.4225 19.4227 22.3067 19.5471C21.5635 19.3005 21.7598 18.5229 21.3729 18.0068C21.9107 18.1815 21.6838 18.8803 22.0163 19.2411Z" fill="var(--fill-0, #3854A4)"/>
<path id="Vector_69" d="M20.523 26.5615C20.3256 26.6094 20.4288 26.2817 20.405 26.139C20.3335 25.7165 20.0782 25.6035 19.8751 25.3032C19.7231 25.0782 19.6663 24.7699 19.9001 25.1068C20.2382 25.592 20.6546 25.8672 20.523 26.5615Z" fill="var(--fill-0, #3854A4)"/>
<path id="Vector_70" d="M21.4873 16.9232C21.6518 16.2735 21.4703 15.7619 21.1469 15.2127C21.2887 15.0723 21.6268 15.8955 21.6439 15.996C21.6847 16.2392 21.729 16.7782 21.4884 16.9232H21.4873Z" fill="var(--fill-0, #3854A4)"/>
<path id="Vector_71" d="M15.3115 13.5582C15.2717 13.1791 15.5497 12.8936 15.6382 12.5465L15.6223 11.9619C15.9684 12.3593 15.6223 12.9576 15.4397 13.3744C15.409 13.444 15.4113 13.5434 15.3115 13.5582Z" fill="var(--fill-0, #3854A4)"/>
<path id="Vector_72" d="M11.9132 12.6459C12.0073 12.639 11.9654 12.7703 12.0232 12.848C12.1582 13.0284 12.4793 13.1757 12.5236 13.3709C12.5939 13.6781 12.527 14.0309 12.2808 14.2422C12.3353 13.959 12.4805 13.7329 12.4113 13.428C12.3466 13.1471 11.7611 13.0238 11.9143 12.647L11.9132 12.6459Z" fill="var(--fill-0, #3854A4)"/>
<path id="Vector_73" d="M22.6199 19.9742C22.6131 19.9285 22.4906 19.7333 22.5064 19.7184C22.916 19.8543 22.7311 20.4115 22.7288 20.7152C22.7277 20.9094 22.7822 21.0704 22.789 21.2576C22.73 21.2576 22.6199 21.0806 22.6199 21.0578C22.6199 20.7358 22.6619 20.2734 22.6199 19.9742Z" fill="var(--fill-0, #3854A4)"/>
<path id="Vector_74" d="M15.1979 29.9836C15.1707 30.3638 14.9585 30.6984 14.9176 31.0466C14.8984 31.2099 15.0436 31.3972 14.8586 31.4657C14.6737 30.9187 15.0062 30.3935 15.1412 29.8694C15.1956 29.8728 15.2013 29.9402 15.1979 29.9836Z" fill="var(--fill-0, #3854A4)"/>
<path id="Vector_75" d="M23.6963 25.4208C23.7054 25.5212 23.7474 25.6183 23.7394 25.7199C23.7077 26.1493 23.3049 26.574 23.4989 27.0741C23.4217 26.9839 23.3718 27.0741 23.3536 26.9348C23.2765 26.3536 23.7179 25.8684 23.6396 25.4219H23.6963V25.4208Z" fill="var(--fill-0, #3854A4)"/>
<path id="Vector_76" d="M16.7842 26.3342C16.6594 26.8435 17.0599 27.0821 17.1246 27.5309C16.9737 27.5629 17.027 27.4921 16.9839 27.419C16.7956 27.0993 16.5437 26.8583 16.6549 26.4576C16.6832 26.3571 16.6378 26.3091 16.7842 26.3342Z" fill="var(--fill-0, #3854A4)"/>
<path id="Vector_77" d="M12.1946 30.7258C12.1549 30.7657 12.0743 30.7566 12.0856 30.6458C12.1356 30.1822 12.3046 29.8762 11.9688 29.4149C12.4056 29.4469 12.3614 30.5579 12.1946 30.7258Z" fill="var(--fill-0, #3854A4)"/>
<path id="Vector_78" d="M11.7406 25.592C11.7066 25.6229 11.6011 25.6137 11.6317 25.5098C11.676 25.358 12.3295 24.5153 12.4509 24.5096C12.5179 24.5061 12.5281 24.5769 12.4793 24.6512C12.3965 24.779 12.1922 24.9172 12.0844 25.0519C12.0005 25.1559 11.7656 25.5703 11.7418 25.592H11.7406Z" fill="var(--fill-0, #3854A4)"/>
<path id="Vector_79" d="M10.8355 25.3077C10.8015 25.5978 10.6574 25.8604 10.6222 26.1527C10.612 26.2406 10.6937 26.5683 10.5814 26.5615C10.334 26.5466 10.6313 25.5612 10.6971 25.4219C10.7368 25.3374 10.688 25.2803 10.8367 25.3089L10.8355 25.3077Z" fill="var(--fill-0, #3854A4)"/>
<path id="Vector_80" d="M16.5006 23.8816C16.4586 23.9113 16.4541 24.0346 16.3304 23.9946C16.58 23.5573 16.3928 23.1531 16.0467 22.8551C16.4041 22.8493 16.5074 23.1908 16.5562 23.4819V23.8245C16.5323 23.8427 16.5165 23.8701 16.4994 23.8816H16.5006Z" fill="var(--fill-0, #3854A4)"/>
<path id="Vector_81" d="M18.3716 31.0672L18.8175 30.6321C18.9559 30.4586 18.7789 30.148 18.9945 30.0406C19.1738 30.5031 18.8334 30.9747 18.3727 31.0672H18.3716Z" fill="var(--fill-0, #3854A4)"/>
<path id="Vector_82" d="M11.9123 31.0112C11.9066 31.2065 11.9009 31.3789 11.9509 31.5707C12.011 31.8025 12.1869 31.8436 12.2527 32.0366C11.8782 31.9555 11.7058 31.4908 11.7909 31.1437C11.8158 31.042 11.7546 30.9838 11.9123 31.0101V31.0112Z" fill="var(--fill-0, #3854A4)"/>
<path id="Vector_83" d="M7.89006 23.4248L8.56857 22.3412C8.58786 22.5022 8.52546 22.6313 8.45738 22.7706C8.41766 22.8528 7.97969 23.515 7.89006 23.4248Z" fill="var(--fill-0, #3854A4)"/>
<path id="Vector_84" d="M10.326 11.6764C10.7617 11.7918 10.6879 12.5488 10.3532 12.7589C10.4723 12.3581 10.6028 12.0521 10.326 11.6764Z" fill="var(--fill-0, #3854A4)"/>
<path id="Vector_85" d="M16.7842 23.5961C16.8035 23.5641 16.799 23.5127 16.8682 23.539C16.9635 23.5641 17.44 24.4205 17.465 24.5358C17.4718 24.5678 17.4786 24.6295 17.4355 24.6215L17.2369 24.4502C17.2369 24.2983 17.0599 23.9832 16.9782 23.8256C16.9589 23.7891 16.9022 23.7765 16.8965 23.7651C16.8886 23.7503 16.9045 23.7228 16.8965 23.708C16.8693 23.6578 16.9646 23.563 16.7831 23.5938L16.7842 23.5961Z" fill="var(--fill-0, #3854A4)"/>
<path id="Vector_86" d="M19.2213 29.2996C19.3756 28.9924 19.3234 28.7675 19.3053 28.4444C19.5776 28.6567 19.5776 29.1854 19.2213 29.2996Z" fill="var(--fill-0, #3854A4)"/>
<path id="Vector_87" d="M10.3815 14.5276C10.2022 14.4877 9.78804 13.7706 9.872 13.6724C9.94349 13.5902 10.0206 13.7717 10.0445 13.8128C10.1602 14.0206 10.2805 14.3061 10.3815 14.5276Z" fill="var(--fill-0, #3854A4)"/>
<path id="Vector_88" d="M18.5408 13.1026C18.5942 13.4634 18.4455 13.9715 18.0314 14.0138C18.0223 13.9087 18.1585 13.983 18.2299 13.9008C18.256 13.8711 18.3809 13.5217 18.4024 13.4474C18.4444 13.3059 18.357 13.0558 18.5397 13.1015L18.5408 13.1026Z" fill="var(--fill-0, #3854A4)"/>
<path id="Vector_89" d="M18.9936 19.4901C19.0242 19.6248 18.8404 19.6705 18.7485 19.7276C18.6815 19.7687 18.2912 19.9776 18.2572 19.9468C18.1392 19.836 18.8994 19.4969 18.9936 19.4912V19.4901Z" fill="var(--fill-0, #3854A4)"/>
<path id="Vector_90" d="M15.2548 14.9273C15.4091 15.0723 14.7079 15.2082 14.6319 15.1545V14.9844C14.7544 15.0494 15.2321 14.9056 15.2548 14.9273Z" fill="var(--fill-0, #3854A4)"/>
<path id="Vector_91" d="M18.5409 17.1504C18.6907 16.9712 18.685 16.7382 18.7395 16.5236C18.9131 16.704 18.8518 17.1938 18.5409 17.1504Z" fill="var(--fill-0, #3854A4)"/>
<path id="Vector_92" d="M12.2515 18.5206C12.29 18.5617 12.281 18.6439 12.172 18.6302C12.0189 18.6108 11.8657 18.596 11.7136 18.5766C11.6365 18.5663 11.5344 18.5366 11.6297 18.4635C11.7522 18.4635 12.1811 18.4464 12.2526 18.5206H12.2515Z" fill="var(--fill-0, #3854A4)"/>
<path id="Vector_93" d="M13.4985 27.1312C13.3533 27.21 12.9096 26.8138 12.989 26.7327L13.4985 27.1312Z" fill="var(--fill-0, #3854A4)"/>
<path id="Vector_94" d="M11.4017 18.6348C11.3461 18.7239 11.1407 18.8392 11.0466 18.8757C10.9524 18.9123 10.8752 18.9317 10.7788 18.9191L11.1339 18.6782L11.4017 18.6348Z" fill="var(--fill-0, #3854A4)"/>
<path id="Vector_95" d="M20.3539 30.4974L20.2665 30.8377C20.2075 30.8502 20.0237 31.1322 19.9579 31.0672C19.9398 31.0489 20.1735 30.6961 20.2166 30.6127C20.2563 30.5362 20.1996 30.4666 20.3539 30.4974Z" fill="var(--fill-0, #3854A4)"/>
<path id="Vector_96" d="M10.3828 29.641C10.325 29.697 10.0549 29.3989 10.1003 29.3567C10.1877 29.2733 10.4033 29.6216 10.3828 29.641Z" fill="var(--fill-0, #3854A4)"/>
<path id="Vector_97" d="M24.4331 15.2698V15.3829C24.3491 15.4011 24.3151 15.3577 24.264 15.2972L24.4331 15.2698Z" fill="var(--fill-0, #3854A4)"/>
<path id="Vector_98" d="M22.6991 29.6079C22.648 29.649 22.6787 29.7449 22.5062 29.6981L22.8182 29.472C22.8682 29.5371 22.7411 29.5748 22.6991 29.6079Z" fill="var(--fill-0, #3854A4)"/>
<path id="Vector_99" d="M26.0189 23.3677C26.1619 25.0474 24.393 27.6222 23.3786 28.8942C23.2345 29.0747 23.0791 29.3476 22.8476 29.3852C23.8608 27.9728 25.0545 26.6482 25.581 24.9503C25.7466 24.4159 25.8692 23.8062 25.9622 23.2524C26.0178 23.2684 26.0144 23.3186 26.0189 23.3666V23.3677Z" fill="var(--fill-0, #3854A4)"/>
<path id="Vector_100" d="M25.2261 40.1927C25.3554 40.3024 25.0116 40.3606 24.9719 40.364C22.7923 40.5501 20.5865 40.3617 18.4012 40.3663C15.7813 40.372 13.1989 40.1208 10.5779 40.1334C8.90316 40.1414 6.66339 40.3161 5.03632 40.0123C4.97958 40.0021 4.74131 39.9986 4.77308 39.8787C4.79237 39.8068 5.68987 39.9609 5.81922 39.9655C8.4164 40.0763 11.0578 39.9096 13.6425 40.018C15.2106 40.0831 16.5813 40.1927 18.1709 40.1893C20.4515 40.1836 22.697 40.3526 24.9719 40.2487C25.04 40.2453 25.209 40.1768 25.2261 40.1916V40.1927Z" fill="var(--fill-0, #3854A4)"/>
<path id="Vector_101" d="M8.90211 45.8882C8.80794 45.9373 8.70582 45.9488 8.60143 45.9556C7.77995 46.0161 6.9233 45.935 6.10863 45.8939C5.6128 45.8688 5.09994 45.9282 4.61885 45.7683C4.49518 45.6427 4.45206 43.6868 4.43731 43.3556C4.42483 43.0656 4.2864 42.0494 4.40554 41.8461C4.45206 41.7673 4.6007 41.7422 4.68807 41.7319C5.31779 41.66 5.9895 41.7753 6.61355 41.7925C7.11506 41.8062 7.64947 41.7559 8.14531 41.7902C8.44031 41.8107 8.80113 41.789 8.84992 42.1076C8.8953 42.409 8.90098 43.0177 8.91232 43.3556C8.94182 44.1972 8.8919 45.0467 8.90211 45.8882ZM4.54737 43.6148C4.55418 43.7347 4.60297 43.8318 4.6041 43.8432C4.64041 44.4507 4.64381 45.0638 4.6858 45.6724C4.71416 45.7135 5.21681 45.7695 5.32119 45.7786C5.41423 45.7855 5.49025 45.725 5.51068 45.7261C5.52997 45.7261 5.54812 45.7261 5.56741 45.7261C5.57535 45.7261 5.62981 45.7843 5.7047 45.7855C5.9044 45.79 6.10523 45.7775 6.30492 45.7832C6.38889 45.5149 6.21756 45.2385 6.19146 45.041C6.18919 45.0227 6.19146 45.0022 6.19146 44.9839C6.19146 44.9611 6.24365 44.8206 6.24819 44.6984H6.30492C6.30719 44.7361 6.42406 44.8469 6.30492 44.9828H6.47512C6.46945 44.9976 6.47852 45.0204 6.47512 45.0398C6.30379 45.0079 6.36506 45.1266 6.36166 45.2374C6.35598 45.4189 6.36619 45.6016 6.36166 45.782C6.47399 45.7866 6.58972 45.7752 6.70205 45.782C6.73155 45.7832 6.74516 45.782 6.75878 45.782C6.85295 45.7855 6.94826 45.7763 7.04244 45.782C7.07988 45.7843 7.11846 45.7798 7.1559 45.782C7.19335 45.7843 7.23192 45.7798 7.26937 45.782C7.27391 45.782 7.28866 45.838 7.3261 45.8391C7.36354 45.8403 7.40212 45.8391 7.43956 45.8391C7.49629 45.8391 7.55303 45.8391 7.60976 45.8391C7.68578 45.8391 7.76066 45.8391 7.83669 45.8391C7.85597 45.8391 7.87413 45.8391 7.89342 45.8391C7.95015 45.8391 8.00688 45.8426 8.06361 45.8391C8.10106 45.8369 8.13963 45.8414 8.17708 45.8391C8.38698 45.8232 8.59009 45.7775 8.80113 45.782C8.77276 45.5994 8.83971 45.3196 8.80113 45.154C8.79319 45.1209 8.76142 45.1129 8.7444 45.0969C8.89644 44.6276 8.75915 44.0807 8.7444 43.6137C8.7444 43.5943 8.7444 43.576 8.7444 43.5566C8.73645 43.3077 8.69334 43.0177 8.68766 42.8155C8.68766 42.7961 8.68766 42.7779 8.68766 42.7585C8.68766 42.7459 8.75461 42.6329 8.74893 42.505C8.74553 42.4239 8.70355 41.982 8.68426 41.9637C8.62639 41.9066 7.3 41.9694 7.06967 41.9637C6.89947 41.9592 6.30606 41.8279 6.20281 41.9169C6.17671 41.9386 6.20167 42.0094 6.19373 42.0185C6.19146 42.0208 6.15061 42.022 6.137 42.0185C6.0814 42.0048 6.00992 41.9238 5.87717 41.9101C5.42104 41.8598 4.9479 41.9512 4.49404 41.8473C4.52014 42.4342 4.519 43.0302 4.55077 43.616L4.54737 43.6148Z" fill="var(--fill-0, #3854A4)"/>
<path id="Vector_102" d="M21.0335 43.5006C21.0335 43.5303 20.9767 43.5886 20.9767 43.6148C20.9767 43.8238 20.979 44.0339 20.9767 44.2417C20.8758 44.3365 20.9211 44.5557 20.92 44.6984C20.9166 45.1529 20.92 45.6096 20.9234 46.0641C21.3319 46.1509 21.7506 46.1212 22.167 46.1246C22.1205 45.782 22.2135 45.4509 22.2294 45.1221C22.2351 45.0136 22.1658 44.9371 22.1658 44.9268C22.1681 44.8891 22.1636 44.8503 22.1658 44.8126C22.1931 44.421 22.2668 44.027 22.2793 43.6148C22.2804 43.5772 22.2793 43.5383 22.2793 43.5006C22.2816 43.4059 22.2793 43.31 22.2793 43.2152H22.3928C22.3905 43.31 22.3962 43.4116 22.3928 43.5006C22.3916 43.5383 22.3939 43.5772 22.3928 43.6148C22.3928 43.6228 22.3372 43.6776 22.3338 43.753C22.3202 44.1058 22.3474 44.4632 22.3065 44.8126L23.583 44.8697C23.5785 44.8766 23.5807 44.9108 23.583 44.9268H22.3372L22.2793 46.1246H23.6397C23.659 46.1246 23.6772 46.1246 23.6965 46.1246C24.1288 46.1269 24.577 46.0846 24.999 46.1817C25.0149 45.7809 25.049 45.387 25.0558 44.9839C25.0558 44.9462 25.0558 44.9074 25.0558 44.8697C25.0558 44.832 25.0558 44.7932 25.0558 44.7555C25.1511 44.6939 25.1114 44.5215 25.1125 44.413C25.1159 44.1481 25.1125 43.8797 25.1125 43.6148C25.1125 43.5954 25.1125 43.5772 25.1125 43.5577C25.1114 43.1398 25.1136 42.7208 25.1125 42.3029C25.1193 42.3097 25.2101 42.2766 25.2271 42.3405C25.3235 43.6217 25.2226 44.9051 25.1125 46.1805L25.0558 46.2376C24.4737 46.1509 21.1322 46.3872 20.8621 46.1531C20.7997 46.0995 20.8111 46.0549 20.8031 45.9841C20.6715 44.8709 20.9472 43.5737 20.861 42.4422L20.9756 42.2446C20.9813 42.6157 20.9711 42.9891 20.9745 43.3613C20.9745 43.4356 21.0323 43.4927 21.0323 43.4995L21.0335 43.5006Z" fill="var(--fill-0, #3854A4)"/>
<path id="Vector_103" d="M22.2804 42.2458C21.9218 42.2435 21.5621 42.2481 21.2036 42.2458C21.2252 42.1419 21.3148 42.1396 21.3999 42.1304C22.2565 42.0334 23.5875 42.1259 24.4623 42.1887C24.6393 42.2012 24.9388 42.1521 25.0761 42.1887C25.1397 42.2058 25.1068 42.2972 25.1136 42.304C24.6813 42.2926 24.2433 42.3188 23.811 42.304C23.4604 42.2914 23.0962 42.2549 22.7342 42.2469C22.6026 42.2446 22.4699 42.2469 22.3371 42.2469C22.3178 42.2469 22.2997 42.2469 22.2804 42.2469V42.2458Z" fill="var(--fill-0, #3854A4)"/>
<path id="Vector_104" d="M16.9545 48.1205C16.6254 48.1068 16.2907 48.1377 15.9605 48.1228C15.0267 48.0817 13.5301 48.1148 12.6848 47.9732C12.6269 47.963 12.5521 48.0657 12.5918 47.8933L16.9136 47.9618C17.2222 47.9984 17.1541 48.9495 17.0543 49.0214C17.0248 49.0431 16.7616 49.0842 16.698 49.0888L12.737 48.9153C12.3966 48.9118 12.4454 48.406 12.4783 48.1479C12.4885 48.0646 12.5214 47.971 12.5918 48.0634C12.6235 48.2244 12.5089 48.7383 12.6848 48.7965L16.9545 48.9187V48.1205Z" fill="var(--fill-0, #3854A4)"/>
<path id="Vector_105" d="M15.1413 39.5088C15.0426 39.43 15.2491 39.4014 15.2593 39.3135C15.2854 39.0897 15.2854 38.5519 15.1787 38.4229C15.0188 38.2288 15.4715 38.335 15.594 38.311C15.5861 38.44 15.4976 38.4731 15.4783 38.6216C15.4635 38.7255 15.4669 39.285 15.5067 39.3409C15.6655 39.5682 16.0002 39.1685 16.0479 39.2245V39.4528C16.2986 39.3775 16.4677 38.3487 16.5868 38.311C16.6197 38.3007 16.723 38.2939 16.7332 38.3464L17.1814 39.5099H16.7854C17.0974 39.0954 16.3713 38.9013 16.3327 39.3706C16.3304 39.4014 16.5188 39.374 16.445 39.5099C16.2657 39.4779 15.1958 39.5522 15.1424 39.5099L15.1413 39.5088ZM16.6708 38.6535C16.5539 38.5314 16.4904 38.9481 16.5017 38.995C16.7922 39.1411 16.7445 38.73 16.6708 38.6535Z" fill="var(--fill-0, #3854A4)"/>
<path id="Vector_106" d="M10.0422 40.6495L10.099 40.7637C8.80773 40.75 7.50517 40.7168 6.22076 40.7043C5.71471 40.6986 5.22001 40.7477 4.71623 40.7637C4.73779 40.6609 4.82742 40.6575 4.91252 40.6483C6.50215 40.4759 8.41969 40.6118 10.0422 40.6506V40.6495Z" fill="var(--fill-0, #3854A4)"/>
<path id="Vector_107" d="M14.5182 43.8432C14.4082 43.7165 14.4036 43.3808 14.4955 43.2209C14.9414 42.441 16.0489 43.3317 15.2557 43.9574L15.5383 43.8443V44.1298C14.6033 44.1766 15.3181 43.9129 15.3136 43.4721C15.3091 42.9195 14.4842 42.9446 14.7009 43.6891C14.7826 43.9722 15.2886 44.1481 14.4048 44.1287C14.3945 44.0362 14.3787 43.7313 14.5182 43.8432C14.5352 43.8569 14.474 44.0111 14.6884 43.9562C14.6907 43.8569 14.533 43.8592 14.5182 43.8432Z" fill="var(--fill-0, #3854A4)"/>
<path id="Vector_108" d="M18.3137 45.5537C18.2865 45.3596 18.3535 45.0844 18.3149 44.9063C18.3024 44.8457 18.147 44.9085 18.2014 44.7555H18.5974C18.4022 45.0752 18.4896 45.5697 18.4272 45.9522C18.3251 46.0766 17.7793 45.1986 17.7464 45.0969C17.6534 45.0821 17.6942 45.1734 17.6908 45.2385C17.6783 45.4635 17.6466 45.7147 17.8043 45.8951C17.7226 45.8802 17.4378 45.9191 17.4083 45.8951C17.3085 45.8152 17.5161 45.7889 17.5263 45.6998C17.5433 45.5571 17.5445 45.0889 17.5195 44.9554C17.4991 44.8446 17.3924 44.8103 17.4083 44.6973C17.65 44.4803 18.1299 45.4646 18.3137 45.5525V45.5537Z" fill="var(--fill-0, #3854A4)"/>
<path id="Vector_109" d="M14.1781 44.1287C14.068 44.2577 13.5268 43.3613 13.4122 43.3317L13.4973 44.1287H13.158C13.1421 44.0156 13.2488 43.9814 13.2692 43.8706C13.3157 43.6205 13.2964 43.1821 13.1569 42.9606C13.1478 42.618 14.001 43.6137 13.9511 43.729C14.0442 43.7439 14.0033 43.6525 14.0067 43.5874C14.0158 43.4127 14.0771 43.0622 13.8933 43.0165C13.9443 42.9 14.1792 42.9309 14.2892 42.9309C14.3312 43.0325 14.1758 43.1056 14.1758 43.1307V44.1287H14.1781Z" fill="var(--fill-0, #3854A4)"/>
<path id="Vector_110" d="M20.7351 38.496C20.8951 38.6661 20.7805 38.9516 20.5762 39.0269L20.92 39.5647C20.507 39.7623 20.591 39.14 20.2687 39.052C20.2234 39.052 20.2268 39.3615 20.2392 39.4152C20.2472 39.4494 20.4628 39.4722 20.3527 39.5659C20.3255 39.5899 19.9862 39.5499 19.9 39.5659C20.0543 39.3581 20.0486 38.8831 20.018 38.6216C20.0032 38.4937 19.8591 38.5873 19.9 38.4275C20.1122 38.3452 20.574 38.327 20.7339 38.4983L20.7351 38.496ZM20.2404 38.9379C20.4276 39.1194 20.9132 38.4583 20.2404 38.5382C20.2517 38.6159 20.2222 38.9196 20.2404 38.9379Z" fill="var(--fill-0, #3854A4)"/>
<path id="Vector_111" d="M6.19 39.3375C6.131 39.1891 6.29098 39.2462 6.30346 39.1868C6.32729 39.0783 6.32275 38.5222 6.30687 38.3921C6.29552 38.2916 6.09242 38.2939 6.18886 38.1968C6.26488 38.1192 6.75618 38.126 6.89007 38.2037C7.18167 38.3704 6.95134 38.5725 6.98992 38.7278C7.02055 38.8499 7.24861 38.8831 7.12267 39.1651C6.98538 39.4722 6.43621 39.3238 6.18886 39.3375H6.19ZM6.53039 38.6535C6.69718 38.818 7.18167 38.271 6.53039 38.2539C6.54287 38.3315 6.5111 38.6341 6.53039 38.6535ZM6.52925 39.2233C7.10905 39.3295 7.05573 38.7243 6.52925 38.7666V39.2233Z" fill="var(--fill-0, #3854A4)"/>
<path id="Vector_112" d="M16.1479 42.9412C16.9002 42.7984 17.0375 44.0818 16.3556 44.1823C15.5466 44.3022 15.4558 43.0713 16.1479 42.9412ZM16.0061 43.9425C16.4928 44.4689 16.8571 43.2643 16.3476 43.1136C15.8654 42.9697 15.7803 43.6993 16.0061 43.9425Z" fill="var(--fill-0, #3854A4)"/>
<path id="Vector_113" d="M12.7053 44.6413V44.9257C12.5532 44.9805 12.6145 44.824 12.5555 44.8103C12.4352 44.7841 12.2684 44.8286 12.1391 44.8115C12.1538 44.9017 12.4103 45.1449 12.4114 45.1814C12.4114 45.2545 12.1243 45.5149 12.0824 45.6096C12.3467 45.6347 12.5283 45.6153 12.762 45.4966C12.8743 45.9419 12.374 45.8677 12.0517 45.8414C11.4674 45.7946 12.1311 45.4658 12.1391 45.2408C12.1459 45.0341 11.7862 44.8731 11.7998 44.6402H12.7064L12.7053 44.6413Z" fill="var(--fill-0, #3854A4)"/>
<path id="Vector_114" d="M12.0822 39.4517C12.0663 39.3386 12.173 39.3044 12.1934 39.1936C12.2172 39.0646 12.215 38.6467 12.1991 38.5074C12.19 38.4252 11.9858 38.3544 12.0811 38.255C12.1004 38.2356 12.5429 38.2448 12.6212 38.2539C13.2736 38.3304 13.2509 39.3215 12.721 39.4414C12.5247 39.4859 12.2853 39.4357 12.0822 39.4528V39.4517ZM12.8039 38.496C12.7335 38.4183 12.4272 38.2939 12.3738 38.4629C12.3341 38.5873 12.3273 39.2918 12.4578 39.3329C12.8572 39.462 13.0217 38.7369 12.8039 38.496Z" fill="var(--fill-0, #3854A4)"/>
<path id="Vector_115" d="M16.6562 44.7099C17.4754 44.5283 17.48 45.8677 16.806 45.9362C16.1411 46.0047 16.0435 44.8457 16.6562 44.7099ZM16.654 44.8789C16.376 44.9633 16.3805 45.5137 16.6097 45.6998C17.1521 46.1417 17.2973 44.6825 16.654 44.8789Z" fill="var(--fill-0, #3854A4)"/>
<path id="Vector_116" d="M7.75594 38.1546C8.45487 38.0929 8.51047 39.3683 7.80246 39.398C7.04792 39.43 7.14323 38.2094 7.75594 38.1546ZM7.70374 38.319C7.38037 38.4012 7.3747 39.2953 7.85805 39.2256C8.29829 39.1617 8.11902 38.2128 7.70374 38.319Z" fill="var(--fill-0, #3854A4)"/>
<path id="Vector_117" d="M18.9378 39.5659C18.923 39.4528 19.0285 39.4186 19.0501 39.3078C19.0751 39.1742 19.0739 38.7061 19.0569 38.5633C19.0467 38.4743 18.8391 38.448 18.9389 38.3681C18.9809 38.335 20.0077 38.2813 19.7876 38.6524C19.6061 38.593 19.4915 38.4903 19.2782 38.5382V38.8808C19.8534 38.7997 19.7933 39.1183 19.2782 38.995C19.1953 39.5442 19.4393 39.4745 19.8443 39.3375C19.8523 39.3455 19.8001 39.5659 19.7876 39.5659H18.9378Z" fill="var(--fill-0, #3854A4)"/>
<path id="Vector_118" d="M11.0611 38.1968C11.1065 38.2311 11.3618 39.1057 11.4412 39.2667C11.4923 39.3695 11.6103 39.2941 11.5717 39.4505H11.1757C11.3743 38.9105 10.5142 38.8671 10.7786 39.4505H10.4394L10.849 38.3521C10.8717 38.2824 10.9976 38.1477 11.0623 38.1968H11.0611ZM11.0623 38.9379L10.9783 38.5394C10.8274 38.7517 10.7094 39.0155 11.0623 38.9379Z" fill="var(--fill-0, #3854A4)"/>
<path id="Vector_119" d="M10.2692 37.3416C10.6742 37.4363 11.2234 37.4363 11.6285 37.3416C12.7461 37.3598 13.9182 37.3176 15.0278 37.4558V37.5128C14.5547 37.4843 14.0577 37.5277 13.5812 37.5151C12.3115 37.4809 11.035 37.4706 9.7597 37.4558V37.3416C9.92876 37.3439 10.1001 37.3404 10.2692 37.3416Z" fill="var(--fill-0, #3854A4)"/>
<path id="Vector_120" d="M13.4983 44.6413C13.538 44.6756 13.7502 45.5012 13.8217 45.6553C13.8682 45.7569 13.9919 45.6816 13.9521 45.8391H13.5562C13.6821 45.5251 13.4563 45.3379 13.1534 45.4738C13.0853 45.6028 13.1261 45.7078 13.159 45.8391H12.8198C12.7744 45.6884 12.8981 45.7489 12.9298 45.6827C13.0025 45.5331 13.2498 44.4278 13.4983 44.6413ZM13.4983 45.3253C13.4291 44.896 13.2838 44.896 13.2158 45.3253H13.4983Z" fill="var(--fill-0, #3854A4)"/>
<path id="Vector_121" d="M14.0657 38.311V38.5382C13.9091 38.6079 13.8989 38.4332 13.8569 38.4252C13.4995 38.3567 13.5392 38.4503 13.5551 38.7666C14.1485 38.6718 14.0418 39.0418 13.5551 38.8808V39.3375C13.6697 39.3272 13.8024 39.3581 13.9136 39.3364C13.9556 39.3284 13.9624 39.156 14.1213 39.2233C14.102 39.6949 13.5471 39.3638 13.2147 39.4505C13.3849 39.1925 13.4042 38.5885 13.2147 38.3384C13.2589 38.2847 13.268 38.2665 13.3406 38.2653C13.5449 38.2653 13.8331 38.3578 14.0634 38.3098L14.0657 38.311Z" fill="var(--fill-0, #3854A4)"/>
<path id="Vector_122" d="M18.0868 38.3681C17.97 38.6695 18.2377 38.9253 18.257 39.2233C18.434 39.0189 18.594 38.6341 18.4828 38.3681H18.8221C18.6315 38.7586 18.5509 39.2245 18.2831 39.5647C18.1016 39.6036 17.8951 38.6809 17.8043 38.5188C17.7782 38.472 17.5899 38.4823 17.7181 38.3669H18.0857L18.0868 38.3681Z" fill="var(--fill-0, #3854A4)"/>
<path id="Vector_123" d="M23.6589 39.4917C23.6714 39.5179 23.8064 39.4814 23.752 39.6218H23.356C23.5897 39.1514 22.9906 39.0646 22.9055 39.4277C22.8806 39.5328 23.1393 39.5225 23.0156 39.6218C22.9861 39.6458 22.7002 39.607 22.6196 39.6218C22.8987 39.3661 22.8863 38.9105 23.061 38.6124C23.3412 38.1329 23.5557 39.2713 23.6589 39.4917ZM23.2425 38.7666C23.1245 38.6478 23.0553 39.068 23.0167 39.108H23.2993C23.2925 39.0498 23.2539 38.7791 23.2425 38.7666Z" fill="var(--fill-0, #3854A4)"/>
<path id="Vector_124" d="M21.9967 38.5964C21.8708 38.4766 21.611 38.7791 21.544 38.7106C21.5236 38.6901 21.569 38.44 21.6382 38.424C21.7301 38.4023 22.3723 38.4069 22.4778 38.4263C22.6673 38.4606 22.6503 38.7026 22.5913 38.7118C22.4268 38.7369 22.4381 38.5165 22.2237 38.5976C22.2895 38.8351 22.1329 39.1674 22.1635 39.3672C22.1908 39.5442 22.3757 39.4448 22.336 39.6241H21.8265C21.7641 39.4745 21.9967 39.4848 21.9967 39.4243C21.9967 39.3044 22.0262 38.6261 21.9967 38.5976V38.5964Z" fill="var(--fill-0, #3854A4)"/>
<path id="Vector_125" d="M16.1615 44.6984V44.9828C16.0016 45.0376 16.0458 44.8377 15.963 44.8126C15.6861 44.7293 15.7372 45.4829 15.7667 45.637C15.7871 45.7478 15.8938 45.782 15.8779 45.8951H15.4252C15.3832 45.7935 15.5386 45.7204 15.5386 45.6953V44.8115C15.348 44.6962 15.2118 45.0935 15.0859 44.9828C15.0746 44.9736 15.1279 44.6984 15.1426 44.6984H16.1627H16.1615Z" fill="var(--fill-0, #3854A4)"/>
<path id="Vector_126" d="M9.29798 38.2619C9.32862 38.3133 9.29798 38.4149 9.30592 38.4811C9.17544 38.5142 9.09488 38.3829 8.9905 38.3669C8.46175 38.2847 8.4697 39.5213 9.25146 39.1388C9.48747 39.0235 9.32294 39.3512 9.04723 39.3912C8.20192 39.5168 8.211 38.1568 9.0495 38.1934C9.10056 38.1957 9.2821 38.2345 9.29798 38.2607V38.2619Z" fill="var(--fill-0, #3854A4)"/>
<path id="Vector_127" d="M10.3168 38.2619C10.3474 38.3133 10.3168 38.4149 10.3248 38.4811C10.1943 38.5142 10.1137 38.3829 10.0093 38.3669C9.49987 38.287 9.55434 39.2793 10.0139 39.277C10.1296 39.277 10.2635 39.1046 10.3815 39.1948C9.8119 39.9119 9.02673 38.8614 9.64738 38.3418C9.779 38.2322 10.2283 38.1123 10.3168 38.2619Z" fill="var(--fill-0, #3854A4)"/>
<path id="Vector_128" d="M14.5186 39.3375C14.75 39.3786 14.885 39.3055 15.0847 39.2233C15.1642 39.6949 14.5412 39.454 14.2349 39.5076C14.2814 39.2028 14.3325 38.8123 14.2962 38.5051C14.286 38.416 14.0783 38.3898 14.1782 38.3098C14.1963 38.2961 14.6139 38.295 14.6309 38.3098C14.6853 38.3567 14.6161 38.4663 14.5174 38.424V39.3364L14.5186 39.3375Z" fill="var(--fill-0, #3854A4)"/>
<path id="Vector_129" d="M14.5195 45.1552C14.6102 45.2397 14.8633 44.816 14.7453 44.6996H15.0856C14.8633 45.0216 14.4253 45.4441 14.7453 45.8391H14.2925C14.5206 45.556 14.406 45.1951 14.2063 44.9279C14.1394 44.8377 13.9726 44.8252 14.01 44.7281C14.1246 44.4381 14.5433 44.9965 14.5206 45.1552H14.5195Z" fill="var(--fill-0, #3854A4)"/>
<path id="Vector_130" d="M22.1104 40.9349C23.1146 40.9258 23.961 41.0583 24.9232 41.1028C25.0457 41.1085 25.3464 40.9589 25.3396 41.1348C24.7882 41.3403 24.1732 41.0914 23.6104 41.0503C23.1157 41.0149 22.6063 41.0525 22.1093 41.0503V40.9361L22.1104 40.9349Z" fill="var(--fill-0, #3854A4)"/>
<path id="Vector_131" d="M13.0457 42.9309V43.2152C12.8676 43.254 12.9674 43.0725 12.7915 43.0416C12.711 43.0279 12.4795 43.0473 12.4795 43.1296V43.9562C12.4795 43.9871 12.9629 44.123 12.197 44.1275C12.1811 44.0145 12.2878 43.9802 12.3082 43.8695C12.3331 43.737 12.332 43.2677 12.315 43.125C12.298 42.9823 12.155 43.101 12.197 42.9297H13.0468L13.0457 42.9309Z" fill="var(--fill-0, #3854A4)"/>
<path id="Vector_132" d="M14.8575 40.8778C15.8004 40.7762 16.7966 40.9372 17.7474 40.992C17.6533 41.2124 17.4207 41.0525 17.2652 41.0491C16.4653 41.0274 15.6461 40.9327 14.8575 40.9349V40.8778Z" fill="var(--fill-0, #3854A4)"/>
<path id="Vector_133" d="M21.4861 38.4252C21.586 38.5051 21.3783 38.5314 21.3681 38.6204C21.3511 38.7632 21.35 39.2313 21.3749 39.3649C21.3953 39.4757 21.502 39.5099 21.4861 39.623H21.0334C21.0175 39.5099 21.1242 39.4757 21.1446 39.3649C21.1696 39.2325 21.1673 38.7632 21.1514 38.6204C21.1412 38.5314 20.9335 38.5051 21.0334 38.4252C21.0516 38.4115 21.468 38.4115 21.4861 38.4252Z" fill="var(--fill-0, #3854A4)"/>
<path id="Vector_134" d="M17.3503 42.988C17.3662 43.101 17.2595 43.1353 17.2391 43.246C17.2164 43.3648 17.2209 43.6902 17.2334 43.8181C17.2516 43.9951 17.3117 44.035 17.3503 44.1846C17.2709 44.2166 16.825 44.172 16.8976 44.0716C16.901 44.067 16.9963 44.0887 17.011 44.0339C17.0349 43.946 17.0292 43.3031 17.0156 43.1821C17.0054 43.093 16.7977 43.0667 16.8976 42.9868C16.9293 42.9617 17.2618 43.0039 17.3503 42.9868V42.988Z" fill="var(--fill-0, #3854A4)"/>
<path id="Vector_135" d="M21.9401 43.3865C21.8674 43.3728 21.6258 43.4082 21.6008 43.3865C21.4817 43.2883 21.8334 43.2574 21.7131 43.1592C21.687 43.1375 21.4476 43.1741 21.3739 43.1592C21.3081 43.0131 21.7358 42.4776 21.7982 42.4764C21.9298 42.4741 21.8799 43.2403 21.9401 43.3876V43.3865Z" fill="var(--fill-0, #3854A4)"/>
<path id="Vector_136" d="M26.1891 42.1887C26.2652 42.9035 26.2731 43.6342 26.3026 44.3559L26.1313 43.8158C26.0598 43.439 26.2073 42.8932 26.1914 42.5632C26.1903 42.5289 26.0893 42.5369 26.0779 42.4924C26.0552 42.4045 26.0269 42.127 26.1903 42.1887H26.1891Z" fill="var(--fill-0, #3854A4)"/>
<path id="Vector_137" d="M3.80985 42.2458C3.73837 42.3405 3.7066 42.2401 3.69639 42.1613C3.65668 41.8553 3.68731 41.2626 4.03564 41.1622C3.96189 41.3631 3.85978 41.4899 3.8246 41.7194C3.79737 41.8952 3.81212 42.0699 3.80985 42.2458Z" fill="var(--fill-0, #3854A4)"/>
<path id="Vector_138" d="M4.37709 40.7625L4.00946 40.4211L3.98223 40.0786C4.07754 40.0717 4.03329 40.203 4.09229 40.2807C4.21143 40.4371 4.43609 40.5045 4.37822 40.7625H4.37709Z" fill="var(--fill-0, #3854A4)"/>
<path id="Vector_139" d="M22.9035 38.0255C23.0295 37.8988 23.5639 38.5257 23.2065 38.3772C23.1327 38.3464 22.79 38.1397 22.9035 38.0255Z" fill="var(--fill-0, #3854A4)"/>
<path id="Vector_140" d="M19.2202 37.5128V37.627C18.9388 37.6145 18.6552 37.5825 18.3704 37.5699L18.4838 37.4558C18.7255 37.4637 18.9672 37.5014 19.2202 37.5128Z" fill="var(--fill-0, #3854A4)"/>
<path id="Vector_141" d="M21.4308 40.9349V41.0491C21.391 41.0446 21.3162 41.0742 21.3173 41.0206C21.2991 40.8984 21.34 40.9441 21.4308 40.9361V40.9349Z" fill="var(--fill-0, #3854A4)"/>
<path id="Vector_142" d="M5.73645 2.89228C6.71338 2.94937 7.93879 2.79065 8.935 2.77581C10.2001 2.7564 11.472 2.82148 12.736 2.78038C14.1838 2.73356 15.6464 2.53146 17.0942 2.49035C18.1505 2.46066 19.2273 2.63308 20.2712 2.6091C21.0121 2.59197 21.8007 2.41499 22.5325 2.37617C23.6649 2.31565 24.8528 2.41956 25.9931 2.38073C26.6944 2.35675 27.4534 2.22773 28.141 2.20489C28.3237 2.19918 28.6834 2.15579 28.7946 2.32022C28.5188 2.27911 28.2556 2.35447 28.0015 2.37731C27.9822 2.37959 27.964 2.37502 27.9447 2.37731C27.2424 2.44582 26.6127 2.48578 25.9046 2.49149C25.7628 2.49149 25.545 2.44696 25.4519 2.54858C25.2658 2.53716 25.0718 2.54858 24.8857 2.54858L24.8574 2.49263L24.829 2.54858C24.7723 2.54858 24.7155 2.54973 24.6588 2.54858C24.6112 2.45724 24.4671 2.49378 24.3752 2.49149C23.969 2.4835 23.5401 2.54858 23.1565 2.54858H22.3067C22.2035 2.54858 21.9311 2.59654 21.7689 2.60568C21.6679 2.61138 21.6622 2.66277 21.6554 2.66277C20.565 2.72785 19.5348 2.66619 18.4569 2.66048C15.6884 2.64678 12.9414 2.92311 10.1808 2.95051C8.72169 2.96535 7.20581 2.88428 5.73532 2.94823V2.89114L5.73645 2.89228Z" fill="var(--fill-0, #3854A4)"/>
<path id="Vector_143" d="M3.07322 2.95051L2.64773 3.06356C2.02368 3.02473 1.428 3.19487 0.80735 3.06356C0.793735 2.96422 0.935565 3.00989 1.00478 3.00761C1.69804 2.97906 2.37882 2.95851 3.07322 2.95166V2.95051Z" fill="var(--fill-0, #3854A4)"/>
<path id="Vector_144" d="M9.92877 33.8624H6.45564C6.34445 33.8373 6.13114 32.6258 6.55889 32.6086C7.49497 32.7 8.5899 32.5698 9.50328 32.6657C9.58497 32.6737 9.92877 32.7331 9.92877 32.8073V33.8624ZM6.47266 32.8073C6.41139 33.0277 6.51691 33.4947 6.47266 33.7482C6.96396 33.5461 6.87205 33.4159 6.83348 32.9672C6.82894 32.9089 6.88227 32.7902 6.86979 32.7788C6.8539 32.7651 6.5033 32.6943 6.47266 32.8073ZM7.6629 33.5769C7.42235 33.5666 7.23287 33.4399 6.98211 33.6626C6.96056 33.7904 7.03771 33.7425 7.12394 33.7482C7.32591 33.7596 7.4927 33.7528 7.6629 33.634C7.56532 33.8441 8.04414 33.706 8.06002 33.6614C8.1247 33.4833 7.68446 33.5769 7.6629 33.5769ZM9.58838 33.6352C9.27749 33.5746 8.91554 33.5472 8.59784 33.5781C8.22681 33.6135 8.1281 33.7676 8.53997 33.8064C8.81682 33.8327 9.16289 33.8064 9.42953 33.7311C9.48853 33.7139 9.60086 33.7174 9.58838 33.6352Z" fill="var(--fill-0, #3854A4)"/>
<path id="Vector_145" d="M23.7534 33.9766H23.6966C23.7034 33.8064 23.6955 33.634 23.6966 33.4627C23.7954 33.3531 23.7568 33.1065 23.7534 32.9489C23.7488 32.7708 23.8305 32.4317 23.5832 32.4362L23.4674 34.0588C23.5117 34.4367 23.4402 34.809 23.413 35.1732H23.3562L23.4697 32.4922C23.2462 32.5653 22.1467 32.3917 22.0491 32.4602C21.9788 32.5093 22.0038 33.2858 21.9958 33.4616C21.9924 33.537 21.9992 33.6135 21.9958 33.69C21.9935 33.7276 21.9969 33.7665 21.9958 33.8041C21.9947 33.8418 21.9969 33.8807 21.9958 33.9183C21.9947 33.956 21.9969 33.9948 21.9958 34.0325C21.9924 34.1433 21.9448 34.3648 21.9391 34.5463C21.9357 34.6411 21.9402 34.737 21.9391 34.8318C21.9391 34.8512 21.9391 34.8695 21.9391 34.8889C21.9391 35.0214 21.9391 35.1549 21.9391 35.2885V35.4598L21.8823 35.4884C21.8676 35.5489 21.8835 35.5569 21.9391 35.5729C22.1172 35.6265 22.7004 35.6014 22.933 35.6277C23.0181 35.6368 23.1078 35.6402 23.1293 35.7441H21.9674C21.8971 35.7441 21.7326 35.5888 21.7655 35.4906C21.8699 34.5475 21.7621 33.505 21.8801 32.5755C21.8903 32.4956 21.8937 32.4271 21.9618 32.3734C22.0525 32.3026 22.823 32.2592 22.9898 32.2627C23.1157 32.265 23.7273 32.3278 23.7851 32.3734C24.0189 32.5573 23.7647 33.6706 23.7511 33.9754L23.7534 33.9766Z" fill="var(--fill-0, #3854A4)"/>
<path id="Vector_146" d="M23.6964 35.5729C23.6226 35.5455 23.6419 35.4644 23.6397 35.4016C23.6272 35.0134 23.6851 34.6308 23.6964 34.2609H23.7531C23.7338 34.5772 23.8223 35.3502 23.6964 35.5729Z" fill="var(--fill-0, #3854A4)"/>
<path id="Vector_147" d="M8.00239 35.9725C7.73688 35.7955 7.61888 35.5032 7.4294 35.2657C7.36813 35.1892 7.26487 35.2006 7.26714 35.1173C7.39536 35.0933 7.44188 35.1504 7.52357 35.228C7.69036 35.3856 7.90367 35.7533 8.00239 35.9714V35.9725Z" fill="var(--fill-0, #3854A4)"/>
<path id="Vector_148" d="M23.0737 35.2885V35.4027C22.8127 35.3879 22.5427 35.4027 22.2806 35.4027V35.2885C22.5381 35.2885 22.8207 35.3057 23.0737 35.2885Z" fill="var(--fill-0, #3854A4)"/>
<path id="Vector_149" d="M24.5464 30.1548C24.4976 30.1525 24.4647 30.1971 24.433 30.2119C24.2026 30.3158 23.995 30.6333 23.6966 30.5259C23.8475 30.3912 24.0449 30.3569 24.2231 30.2576C24.3377 30.1937 24.4239 30.0806 24.4897 30.0406C24.5033 30.0327 24.5317 30.0486 24.5464 30.0406V30.1548Z" fill="var(--fill-0, #3854A4)"/>
<path id="Vector_150" d="M19.4474 33.5769C19.6005 33.5461 19.7424 33.5986 19.933 33.5244C20.0771 33.4673 20.2246 33.1681 20.2972 33.2355C20.3494 33.2835 19.9387 33.5952 19.8445 33.634L19.7878 33.6911C19.6902 33.7117 19.5438 33.6694 19.4474 33.6911V33.5769Z" fill="var(--fill-0, #3854A4)"/>
<path id="Vector_151" d="M6.86964 32.4362C6.74256 32.5744 6.64838 32.0845 6.62682 32.0537C6.59505 32.008 6.47478 32.0069 6.47365 31.9247C6.64498 31.8779 6.91616 32.3871 6.86964 32.4374V32.4362Z" fill="var(--fill-0, #3854A4)"/>
<path id="Vector_152" d="M21.8268 5.23077C21.7315 5.23077 21.4626 5.28101 21.4308 5.17482C22.0946 5.1143 22.7742 5.0869 23.4425 5.11658C23.6082 5.12343 23.4879 5.13485 23.4697 5.17368C23.4323 5.17368 23.3937 5.17368 23.3563 5.17368C23.0148 5.17368 22.7163 5.21821 22.393 5.23077C22.2489 5.23648 22.0878 5.23077 21.9403 5.23077C21.9028 5.23077 21.8642 5.23077 21.8268 5.23077Z" fill="var(--fill-0, #3854A4)"/>
<path id="Vector_153" d="M21.317 5.28786V5.23077L21.3726 5.25931C21.3658 5.29357 21.3397 5.28329 21.317 5.28786Z" fill="var(--fill-0, #3854A4)"/>
<path id="Vector_154" d="M12.7622 33.2355C12.8246 33.4216 12.331 33.3588 12.2289 33.344C12.1585 33.3337 11.6718 33.1841 11.7989 33.0642C11.8352 33.03 12.5761 33.3417 12.761 33.2355H12.7622Z" fill="var(--fill-0, #3854A4)"/>
<path id="Vector_155" d="M17.8609 33.2926C17.8745 33.3748 17.761 33.3714 17.702 33.3885C17.4218 33.4696 17.1313 33.473 16.8408 33.4627C16.7512 33.3942 16.8408 33.3588 16.9248 33.3486C17.2107 33.3132 17.5647 33.3291 17.8609 33.2926Z" fill="var(--fill-0, #3854A4)"/>
<path id="Vector_156" d="M13.8388 33.2915C14.2745 33.4559 14.8214 33.2412 15.2549 33.4056H15.1981C14.8396 33.4034 14.4799 33.4091 14.1214 33.4056C13.9897 33.4056 13.857 33.4091 13.7242 33.4056V33.2915C13.7617 33.2915 13.8003 33.2915 13.8377 33.2915H13.8388Z" fill="var(--fill-0, #3854A4)"/>
<path id="Vector_157" d="M16.2179 33.3497C16.2588 33.5746 15.8378 33.4216 15.7085 33.4627C15.6676 33.2378 16.0886 33.3908 16.2179 33.3497Z" fill="var(--fill-0, #3854A4)"/>
<path id="Vector_158" d="M4.99978 45.0981C5.06559 45.323 5.23578 45.3698 5.11324 45.0981C5.40144 45.1038 5.20628 45.3356 5.23578 45.4566C5.25167 45.5217 5.44115 45.6564 5.25507 45.6119C5.23238 45.6062 5.1643 45.4292 5.05651 45.4395L4.94304 45.6108V45.0981C4.9612 45.0992 4.98049 45.0981 4.99978 45.0981Z" fill="var(--fill-0, #3854A4)"/>
<path id="Vector_159" d="M5.84965 42.0756L5.96312 42.5883C5.68967 42.3029 5.61819 42.6534 5.59549 42.6454C5.48203 42.6066 5.54217 42.5506 5.55692 42.4947C5.57053 42.4433 5.73619 41.966 5.84965 42.0756Z" fill="var(--fill-0, #3854A4)"/>
<path id="Vector_160" d="M5.28357 43.7279C4.94431 43.7279 5.1406 43.8877 5.11451 44.0978L4.94431 44.1275C5.03962 43.8957 5.07593 43.6479 4.77411 43.7005C4.88871 43.5726 5.20868 43.5543 5.28357 43.7279Z" fill="var(--fill-0, #3854A4)"/>
<path id="Vector_161" d="M4.88654 42.1316C4.89562 42.1225 4.86952 42.0471 4.89448 42.0254C4.94214 41.9843 5.1997 42.0962 5.11233 42.1887C5.08964 42.2127 4.90923 42.1087 4.88654 42.1316C4.78782 42.2332 5.01816 42.272 5.06014 42.3257C5.1702 42.4673 5.1146 42.5815 4.94327 42.5883C4.91377 42.5792 4.86498 42.594 4.82981 42.5883C4.82981 42.5701 4.75605 42.5244 4.77307 42.4753C5.34153 42.4502 4.79009 42.3223 4.77534 42.2994C4.66642 42.1293 4.87746 42.1419 4.8854 42.1327L4.88654 42.1316Z" fill="var(--fill-0, #3854A4)"/>
<path id="Vector_162" d="M4.77293 43.3865C4.85122 43.2243 4.95334 42.5415 5.11446 43.0645L4.82967 43.3865H4.77293Z" fill="var(--fill-0, #3854A4)"/>
<path id="Vector_163" d="M5.22669 44.8126V44.8697C5.17563 44.8674 5.04287 44.9816 4.94303 44.8697C4.94303 44.8629 4.89197 44.84 4.88516 44.8138C4.98841 44.7955 5.13251 44.8343 5.22555 44.8138L5.22669 44.8126Z" fill="var(--fill-0, #3854A4)"/>
<path id="Vector_164" d="M5.22681 44.8126C5.21773 44.7453 5.24042 44.4803 5.22681 44.4701C5.3675 44.5728 5.40948 44.7681 5.22681 44.8126Z" fill="var(--fill-0, #3854A4)"/>
<path id="Vector_165" d="M5.16997 44.413C5.1904 44.429 5.20628 44.4552 5.2267 44.4701C5.21536 44.4609 5.05651 44.4529 4.94304 44.413C5.01566 44.405 5.10189 44.4255 5.16997 44.413Z" fill="var(--fill-0, #3854A4)"/>
<path id="Vector_166" d="M6.01982 43.3865C5.9143 43.375 5.72709 43.3739 5.6227 43.3865V42.8726C6.12534 42.8064 5.83488 43.1033 6.01982 43.3865Z" fill="var(--fill-0, #3854A4)"/>
<path id="Vector_167" d="M7.37939 43.4436C7.34195 43.4424 7.30337 43.4413 7.26592 43.4436V42.8726C7.3896 42.835 7.69141 42.9115 7.65964 43.0667C7.63582 43.1809 7.31131 43.2266 7.37939 43.4436Z" fill="var(--fill-0, #3854A4)"/>
<path id="Vector_168" d="M5.96323 44.413C6.30816 44.6425 5.78056 44.6847 5.84977 44.9268C5.82027 44.9188 5.75673 44.9428 5.73971 44.9245C5.72383 44.9085 5.73971 44.8469 5.73744 44.8126C5.72609 44.7019 5.74538 44.5831 5.73744 44.4701C5.74879 44.4701 5.88608 44.4267 5.96437 44.413H5.96323Z" fill="var(--fill-0, #3854A4)"/>
<path id="Vector_169" d="M8.51284 44.9839C8.49469 44.9816 8.4754 44.9839 8.45611 44.9839C8.40165 44.8332 8.12139 44.7955 8.17245 44.9839C8.13501 44.9839 8.0953 44.9805 8.05899 44.9839C8.09189 44.9108 8.23032 44.4701 8.25755 44.4701C8.42548 44.4701 8.50377 44.8469 8.51171 44.9839H8.51284Z" fill="var(--fill-0, #3854A4)"/>
<path id="Vector_170" d="M8.45613 45.1552L8.28707 45.3539C8.71142 45.564 8.4618 45.8905 8.11687 45.6393L8.3994 45.6108C8.25757 45.4475 8.06695 45.4201 8.2292 45.1552C8.30295 45.1483 8.38124 45.1563 8.45613 45.1552Z" fill="var(--fill-0, #3854A4)"/>
<path id="Vector_171" d="M6.47289 44.1858L6.41616 43.6731C6.60451 43.6228 6.6601 43.9859 6.78378 43.9585L6.84051 43.6719L6.86888 44.1858L6.55685 43.9014L6.52849 44.1858C6.5092 44.1858 6.49104 44.1858 6.47175 44.1858H6.47289Z" fill="var(--fill-0, #3854A4)"/>
<path id="Vector_172" d="M6.92672 45.1552C6.97777 45.3379 6.77127 45.2283 6.75312 45.3002C6.73042 45.3881 6.75425 45.5605 6.81212 45.6416C6.5069 45.8117 6.71 45.347 6.63625 45.2739C6.58406 45.2225 6.51711 45.3756 6.47286 45.1563C6.61809 45.1426 6.78602 45.1757 6.92558 45.1563L6.92672 45.1552Z" fill="var(--fill-0, #3854A4)"/>
<path id="Vector_173" d="M6.58629 42.6454C6.46942 42.5472 6.55452 42.3542 6.53069 42.2252C6.52275 42.1795 6.31284 42.1932 6.44446 42.0745H6.81208C6.86655 42.2652 6.65777 42.1396 6.63848 42.2195C6.61239 42.3291 6.66345 42.5187 6.64189 42.6454C6.6226 42.6454 6.60444 42.6454 6.58516 42.6454H6.58629Z" fill="var(--fill-0, #3854A4)"/>
<path id="Vector_174" d="M6.52956 44.9268V44.413H6.81322C6.67253 44.5637 6.47964 44.6002 6.81322 44.6688C6.65778 44.7042 6.67253 44.8343 6.64303 44.8686C6.59537 44.9245 6.53297 44.92 6.52956 44.9257V44.9268Z" fill="var(--fill-0, #3854A4)"/>
<path id="Vector_175" d="M7.32263 44.2428V43.6731C7.59267 43.6617 7.33057 43.93 7.54842 43.9026C7.48828 43.9814 7.469 44.0396 7.43609 44.1287C7.42588 44.1561 7.45198 44.2234 7.43496 44.2406C7.42134 44.2543 7.35667 44.2383 7.32263 44.2417V44.2428Z" fill="var(--fill-0, #3854A4)"/>
<path id="Vector_176" d="M7.94671 42.8167C7.82531 43.0108 7.88318 43.2917 7.94671 43.5007C7.95579 43.5303 7.94104 43.5794 7.94671 43.6148C7.92743 43.6148 7.90927 43.6148 7.88998 43.6148C7.87069 43.6148 7.85254 43.6148 7.83325 43.6148C7.83325 43.5897 7.77652 43.5315 7.77652 43.5007C7.77312 43.2906 7.78446 43.0439 7.77652 42.8167C7.77538 42.779 7.77879 42.7402 7.77652 42.7025C7.92062 42.7311 7.9365 42.8133 7.94671 42.8167Z" fill="var(--fill-0, #3854A4)"/>
<path id="Vector_177" d="M6.47281 43.3865V42.8738C6.62032 42.8304 6.5772 42.9777 6.58514 43.0736C6.59195 43.1535 6.62939 43.2323 6.58514 43.3294C6.55564 43.3397 6.52274 43.3705 6.47168 43.3865H6.47281Z" fill="var(--fill-0, #3854A4)"/>
<path id="Vector_178" d="M7.49282 42.6454C7.43723 42.6431 7.37823 42.642 7.32263 42.6454C7.34986 42.5529 7.54048 42.6271 7.55296 42.5564C7.59381 42.3268 7.59721 42.1133 7.32263 42.1887C7.528 41.8701 7.87293 42.5015 7.49282 42.6454Z" fill="var(--fill-0, #3854A4)"/>
<path id="Vector_179" d="M8.05902 42.6454L8.00228 42.1327C8.6286 42.0596 8.21219 42.352 8.455 42.618L8.28594 42.6454C8.27914 42.5289 8.32112 42.4113 8.14411 42.473C8.10554 42.4867 8.11802 42.5872 8.05902 42.6454Z" fill="var(--fill-0, #3854A4)"/>
<path id="Vector_180" d="M8.45595 43.6719C8.51042 43.8249 8.35497 43.7621 8.34249 43.8226C8.31299 43.9597 8.43894 44.2885 8.23016 44.2417V43.7861L8.0872 43.8421C7.91927 43.7096 8.42418 43.6468 8.45595 43.6719Z" fill="var(--fill-0, #3854A4)"/>
<path id="Vector_181" d="M7.60523 45.2123C7.62565 45.2294 7.7255 45.6485 7.77542 45.725C7.50992 45.7923 7.62905 45.5308 7.52126 45.3824C7.47474 45.3824 7.46907 45.7786 7.26711 45.725C7.31703 45.6485 7.41688 45.2294 7.4373 45.2123C7.44411 45.2066 7.59955 45.2066 7.60523 45.2123Z" fill="var(--fill-0, #3854A4)"/>
<path id="Vector_182" d="M8.22925 43.4436C7.87411 43.391 8.00006 42.8578 8.30187 42.8829C8.48114 42.8978 8.55263 43.141 8.51518 43.2917C8.4993 43.3545 8.40512 43.3237 8.39945 43.3294C8.39491 43.2415 8.42214 43.117 8.37222 43.0428C8.18841 42.771 7.89794 43.4116 8.39945 43.3294C8.38357 43.3476 8.43122 43.4835 8.28599 43.4436C8.26783 43.4436 8.24854 43.4436 8.22925 43.4436Z" fill="var(--fill-0, #3854A4)"/>
<path id="Vector_183" d="M6.07672 45.5537C6.08693 45.54 6.0892 45.2237 6.07672 45.2111C6.27642 45.3367 6.21175 45.4167 6.07672 45.5537Z" fill="var(--fill-0, #3854A4)"/>
<path id="Vector_184" d="M6.07671 45.2123C6.03473 45.17 5.801 45.2031 5.78965 45.3561C5.77376 45.5651 6.00977 45.6519 6.07671 45.5548C5.78738 45.8471 5.57861 45.4555 5.7454 45.1643C5.88042 45.1289 5.96665 45.1426 6.07671 45.2134V45.2123Z" fill="var(--fill-0, #3854A4)"/>
<path id="Vector_185" d="M21.374 44.6413C21.4488 44.4883 21.7745 44.6471 21.7733 44.3856C21.7733 44.2143 21.5634 44.2611 21.5441 44.2417C21.45 44.1469 21.846 44.0316 21.7143 43.9003C21.6417 43.8284 21.4205 44.0659 21.3751 44.0133C21.2083 43.8238 21.804 43.6457 21.8755 43.9403C21.8913 44.0088 21.8357 44.0898 21.846 44.1492C21.8664 44.268 21.9708 44.3068 21.9197 44.4724C21.8482 44.7076 21.5759 44.735 21.3762 44.6413H21.374Z" fill="var(--fill-0, #3854A4)"/>
<path id="Vector_186" d="M21.7133 45.3835C21.6566 45.2534 21.8007 45.0456 21.4296 45.0981C21.753 44.8103 21.9879 45.3242 21.7133 45.3835Z" fill="var(--fill-0, #3854A4)"/>
<path id="Vector_187" d="M21.7131 45.3835C21.7869 45.5525 22.0456 45.8243 21.6258 45.8974C20.9994 46.0058 21.4136 45.4521 21.4124 45.4132C21.409 45.3048 21.1935 45.3093 21.4306 45.0992C21.3977 45.2682 21.5452 45.4201 21.7143 45.3847L21.7131 45.3835ZM21.7131 45.782C21.7483 45.6713 21.6235 45.4749 21.5157 45.4977C21.3421 45.5343 21.4 45.951 21.7131 45.782Z" fill="var(--fill-0, #3854A4)"/>
<path id="Vector_188" d="M23.2859 44.6276C23.1985 44.7156 22.9659 44.6973 22.8468 44.6973C22.8763 44.55 23.1532 44.6094 23.1861 44.4975C23.2326 44.3422 23.0874 44.2897 22.9603 44.2977C22.9512 44.107 23.1997 44.1789 23.1305 43.9562L22.7912 44.0122C22.6698 43.8992 23.2122 43.6125 23.2939 43.9391C23.3177 44.0362 23.2496 44.1241 23.261 44.2029C23.2757 44.2999 23.4618 44.4507 23.287 44.6265L23.2859 44.6276Z" fill="var(--fill-0, #3854A4)"/>
<path id="Vector_189" d="M24.4896 43.0439L24.602 42.6454C23.7635 42.9765 24.4692 42.3063 24.7211 42.6123C24.8788 42.803 24.5554 43.1136 24.4885 43.0439H24.4896Z" fill="var(--fill-0, #3854A4)"/>
<path id="Vector_190" d="M24.376 43.2723C24.5984 43.3191 24.831 43.0713 24.7731 43.3865H24.2069L24.4327 43.1021L24.376 43.2723Z" fill="var(--fill-0, #3854A4)"/>
<path id="Vector_191" d="M23.0736 45.8391C23.0793 45.8483 23.2495 45.8597 23.2438 45.9522H22.7343C22.6765 45.7649 22.8886 45.8871 22.9079 45.8072C22.9488 45.6359 22.9465 45.2214 22.7332 45.1826L23.0736 45.0399C23.1054 45.1837 23.0305 45.7683 23.0736 45.838V45.8391Z" fill="var(--fill-0, #3854A4)"/>
<path id="Vector_192" d="M24.7731 43.8432C24.8185 43.8877 24.4894 44.5797 24.4259 44.663C24.3737 44.7316 24.2727 44.8081 24.2069 44.7555C24.174 44.7293 24.5859 44.1081 24.604 44.0156C24.4225 43.9494 24.0526 44.18 24.1513 43.93C24.2115 43.7781 24.6279 43.8638 24.7742 43.8443L24.7731 43.8432Z" fill="var(--fill-0, #3854A4)"/>
<path id="Vector_193" d="M22.8468 43.3865L23.1861 43.1295C23.1861 42.9788 23.0624 43.1421 22.9058 43.0154C22.5336 42.7162 23.1463 42.1978 23.3721 42.7173C23.5162 43.0485 23.1985 43.4333 22.8479 43.3865H22.8468ZM23.2428 42.9297C23.3018 42.8418 23.1781 42.5632 23.0465 42.5895C22.9614 42.6054 22.9285 42.8635 22.9659 42.9263C22.9898 42.9685 23.2224 42.9606 23.2428 42.9297Z" fill="var(--fill-0, #3854A4)"/>
<path id="Vector_194" d="M24.5462 45.0981L24.2069 45.4395C24.8208 45.2751 24.7085 46.1257 24.2478 46.0013C23.8155 45.8848 24.081 45.0307 24.5462 45.0981ZM24.2989 45.5011C24.0628 45.5434 24.182 45.9636 24.4044 45.8962C24.5791 45.8426 24.4656 45.4715 24.2989 45.5011Z" fill="var(--fill-0, #3854A4)"/>
<path id="Vector_195" d="M16.4439 43.4436V43.6708C16.2749 43.6114 16.1603 43.6114 15.9912 43.6708V43.4436C16.158 43.471 16.2783 43.5121 16.4439 43.4436Z" fill="var(--fill-0, #3854A4)"/>
<path id="Vector_196" d="M6.0198 43.729L5.79287 43.8147C5.81102 43.8854 5.94037 43.8021 5.9642 43.8729C6.01753 44.0327 5.72933 43.8706 5.794 44.0716L6.0198 44.1858H5.6794V43.616C5.80081 43.616 5.97328 43.5829 6.0198 43.7302V43.729Z" fill="var(--fill-0, #3854A4)"/>
</g>
<defs>
<clipPath id="clip0_1362_990">
<rect width="29.8387" height="50" fill="white"/>
</clipPath>
</defs>
</svg>
