<svg width="32" height="32" viewBox="0 0 32 32" fill="none" xmlns="http://www.w3.org/2000/svg">
<g transform="translate(7, 1)">
<g id="Layer_1">
<g id="Vector">
<path d="M10.2407 0.264383C12.1598 0.184911 14.085 0.114346 16.0042 0.0602225C16.4753 0.0472055 17.1397 -0.0445983 17.5986 0.0266524C17.7252 0.0465204 17.8423 0.131473 17.8811 0.255477C17.9417 0.451417 17.8675 1.05294 17.8116 1.26326C17.7354 1.54758 17.1445 2.15527 16.9212 2.4204C16.6536 2.73829 16.4038 3.06166 16.139 3.37818C16.0334 3.50424 15.74 3.72827 15.6781 3.83788C15.6447 3.89749 15.6195 4.16125 15.612 4.251C15.5303 5.30675 15.5337 6.37414 15.5113 7.43468C15.4977 8.07799 15.3983 8.96451 15.4752 9.59001C15.5058 9.83665 15.8231 10.3916 15.9184 10.6834C16.5542 12.6319 16.1968 15.0777 15.0694 16.7767C15.034 17.7592 14.9197 18.7375 14.8638 19.7186C14.8407 20.1296 14.7604 20.8531 14.793 21.2265C14.8142 21.4608 15.126 22.0246 15.2042 22.3179C15.2485 22.4837 15.2444 22.6488 15.2791 22.7899C15.3704 23.1626 15.6188 23.6161 15.7475 23.995C16.1008 25.0322 15.9517 25.9058 15.9837 26.9745C16.0048 27.687 16.1505 28.6105 16.0886 29.3018C16.0532 29.6937 15.8809 29.8698 15.5113 29.9527C15.1144 30.0417 14.5214 29.9814 14.0993 29.9677C11.2748 29.8752 8.42637 29.7663 5.6018 29.693C4.695 29.6697 3.71127 29.7245 2.81331 29.6594C2.22648 29.617 1.90719 29.5409 1.87656 28.8914C1.85205 28.368 1.92898 27.711 1.94532 27.1787C1.97119 26.3518 1.90107 24.8123 2.17746 24.093C2.27481 23.8409 2.61112 23.4051 2.65197 23.2017C2.71392 22.894 2.64448 22.6474 2.76974 22.2939C2.86505 22.0246 3.26263 21.4999 3.27488 21.2943C3.29531 20.9456 3.17345 20.4592 3.17004 20.0954C3.07201 18.9019 3.12171 17.6585 2.96241 16.4712C2.93245 16.2465 2.7112 15.9738 2.60772 15.7676C1.76763 14.0946 1.72202 12.3524 2.26869 10.5656C2.33881 10.3375 2.57096 9.93736 2.59206 9.76197C2.67988 9.04056 2.46748 8.04373 2.4879 7.29903C2.50152 6.63653 2.43888 5.97335 2.41982 5.31428C2.40961 4.9683 2.46543 4.50517 2.42323 4.18181C2.39599 3.97285 1.90787 3.66866 1.76219 3.51246C1.63216 3.3727 1.58995 3.18978 1.47081 3.05344C1.36733 2.93423 1.20939 2.85339 1.0957 2.7472C0.87921 2.54509 0.342073 2.1032 0.197747 1.90589C0.0377629 1.68597 -0.0357617 1.06116 0.0159778 0.80219C0.116053 0.30823 0.755308 0.450732 1.11408 0.436344C2.29047 0.390442 3.39811 0.378796 4.58131 0.399349C5.76451 0.419902 7.01442 0.405515 8.23439 0.366464C8.24868 0.419902 8.35965 0.417847 8.37054 0.366464C8.57614 0.358928 8.77901 0.341115 8.98257 0.332209L9.03295 0.366464L9.04996 0.332209C9.42371 0.316451 9.80155 0.280141 10.1719 0.263698L10.2223 0.297953L10.2393 0.263698L10.2407 0.264383ZM17.2091 1.80381C17.2132 1.7997 17.2827 1.80655 17.329 1.7723C17.3446 1.76065 17.5611 1.50922 17.5829 1.47907C17.7218 1.28382 17.8218 0.587067 17.7851 0.352077C17.764 0.218481 17.6932 0.176005 17.5672 0.160933C16.7231 0.0615927 15.74 0.271919 14.8795 0.194503C12.253 0.374685 9.62795 0.447991 6.99468 0.50417C5.03403 0.545961 3.07542 0.495948 1.11476 0.573365C0.473464 0.598714 0.103799 0.365779 0.143284 1.2064C0.151454 1.37973 0.187535 1.64555 0.273314 1.79353C0.359092 1.94152 1.02694 2.5355 1.19782 2.67663C1.29108 2.75405 1.39729 2.81708 1.48715 2.89861C1.53208 2.7657 1.48034 2.6136 1.51098 2.47795C1.53548 2.36834 1.63148 2.37861 1.63964 2.2827C1.84388 2.27174 2.04743 2.2594 2.25167 2.24844C2.28026 2.24707 2.3109 2.24707 2.31975 2.21419C2.53079 2.29914 2.74932 2.21556 2.94743 2.21282C3.36134 2.20665 3.77594 2.22035 4.18986 2.21419L4.2239 2.14568C4.38865 2.19638 4.53229 2.17582 4.69976 2.17993C4.72223 2.17993 4.74538 2.17993 4.76784 2.17993C4.97071 2.18473 5.17699 2.18199 5.37986 2.17993C5.40233 2.17993 5.42548 2.17993 5.44794 2.17993C5.54938 2.17925 5.65218 2.18199 5.75361 2.17993C5.78425 2.17925 5.81557 2.14568 5.82169 2.14568C5.99597 2.14157 6.17502 2.1402 6.34998 2.14431C6.43304 2.14636 6.53175 2.19363 6.60391 2.17993C6.61957 2.17719 6.62774 2.15458 6.63795 2.14568C6.67608 2.11416 6.69514 2.05113 6.70603 2.04291C6.70875 2.04086 6.77002 2.00934 6.77411 2.00866C6.84899 1.99427 7.19551 1.97235 7.28401 1.9744C7.33575 1.97577 7.54203 2.02099 7.62372 2.04291L7.74627 2.31901C8.33787 2.34573 8.92674 2.27242 9.51562 2.26146C9.64837 2.25872 9.94451 2.3423 10.0385 2.23337C10.082 2.18267 10.1018 2.07237 10.1726 2.00934C10.1841 1.99907 10.1978 1.97988 10.2066 1.97509C10.3428 1.89836 10.9119 1.85999 11.0562 1.9237C11.2006 1.98742 11.0453 2.09978 11.3966 2.07717C11.4279 2.07511 11.4565 2.0436 11.4647 2.04291C11.5505 2.03401 11.6778 2.0758 11.7363 2.00866C11.7472 2.0114 11.7595 2.0066 11.7704 2.00866C11.8956 2.03538 11.9726 2.05387 12.1101 2.04291C12.1387 2.04086 12.1686 2.04223 12.1782 2.00866C12.3021 2.05661 12.7527 2.04086 12.9263 2.04291C12.972 2.04291 13.0169 2.04291 13.0625 2.04291C13.377 2.04634 13.7004 2.04976 14.0142 2.04291C14.0823 2.04154 14.1504 2.04497 14.2185 2.04291C14.2409 2.04291 14.2641 2.04291 14.2865 2.04291C14.309 2.04291 14.3179 2.00866 14.3206 2.00866C14.5854 2.00044 14.8482 1.98742 15.1021 1.9744C15.1362 1.97235 15.1702 1.97577 15.2042 1.9744C15.2716 1.97098 15.3404 1.97783 15.4085 1.9744C15.4425 1.97303 15.4766 1.97646 15.5106 1.9744C15.5331 1.97303 15.5562 1.97577 15.5787 1.9744C15.6107 1.97235 15.6406 1.94015 15.6467 1.94015C15.6692 1.93878 15.6924 1.94152 15.7148 1.94015C15.7196 1.94015 15.7332 1.94083 15.7489 1.94015C15.7822 1.93878 15.8169 1.94015 15.851 1.94015C15.8714 1.94015 15.8755 2.00934 15.9531 1.94015C15.9654 1.92918 15.9776 1.91891 15.9871 1.90589H16.0212C16.1213 1.9655 16.2949 1.98194 16.3609 2.04291C16.5461 2.21282 16.3473 2.70061 16.3949 2.76159C16.4746 2.78351 16.4521 2.74103 16.4725 2.71774C16.6359 2.53139 16.7877 2.32312 16.9389 2.14568C17.0001 2.07306 17.1948 1.81957 17.2105 1.80381H17.2091ZM10.2407 2.11211C10.2264 2.12033 10.1923 2.0895 10.1712 2.13403C10.1413 2.19706 10.1086 2.57524 10.1031 2.67526C10.063 3.42819 10.0834 4.21538 10.0691 4.9683C10.0643 5.21494 10.063 5.46295 10.1045 5.70548C10.2556 5.62121 10.2386 5.73905 10.2604 5.74247C10.3094 5.74932 10.3748 5.69657 10.4231 5.70342C10.4367 5.70548 10.5865 5.80961 10.6001 5.81167C10.6437 5.81715 10.6941 5.7733 10.7308 5.7733C10.7526 5.7733 10.7335 5.83702 10.7989 5.84592C10.8643 5.85483 10.9514 5.83496 11.0229 5.84318C11.0358 5.14232 11.0059 4.43803 11.0215 3.73717C11.0276 3.45971 11.0855 3.12743 11.0923 2.84996C11.0964 2.69582 11.1175 2.13472 11.0406 2.04428C10.9909 1.98536 10.3836 1.99564 10.2992 2.04428C10.2624 2.06621 10.2781 2.11005 10.2754 2.11211C10.2692 2.11759 10.2502 2.10731 10.2413 2.11211H10.2407ZM7.72176 5.77056C7.7238 5.33346 7.73061 4.89294 7.7238 4.45722C7.72312 4.38871 7.69044 4.32499 7.68908 4.25237C7.68363 3.78445 7.77622 2.75816 7.68295 2.37656C7.56109 1.87917 7.16352 2.14225 6.79453 2.1169C6.6965 2.14979 6.70126 2.4204 6.70331 2.50741C6.72441 3.26856 6.7816 4.03588 6.80815 4.79703C6.82244 5.20124 6.79453 5.60888 6.80679 6.01309L7.72108 5.77056H7.72176ZM11.0903 5.26016C11.0916 5.36909 11.0705 5.83016 11.1052 5.87812C11.8078 6.08639 12.477 6.41524 13.0727 6.84001C13.5813 7.20243 14.2049 7.73955 14.5507 8.26091C14.6937 8.47603 14.7161 8.60826 14.9646 8.76857L15.339 9.36667L15.5092 3.48094C15.5555 3.47135 15.5909 3.49259 15.6052 3.53781C15.6256 3.60289 15.5685 3.73375 15.6617 3.72005C15.8122 3.46313 16.2404 3.18361 16.288 2.87874C16.303 2.78145 16.352 2.13883 16.3248 2.11142L11.1577 2.14568C11.2509 2.56359 11.1386 2.98904 11.1577 3.41175C11.3408 3.39325 11.5301 3.38434 11.7139 3.38229C11.9828 3.37955 12.603 3.44121 12.8229 3.37749C12.8385 3.41997 12.8882 3.41312 12.925 3.41175C12.9474 3.41038 12.9706 3.41312 12.9931 3.41175C13.0155 3.41038 13.0244 3.37749 13.0271 3.37749C13.2518 3.36585 13.5098 3.3864 13.7412 3.37749C13.7719 3.37612 13.8025 3.34324 13.8093 3.34324C13.8774 3.34118 13.9455 3.34461 14.0136 3.34324C14.036 3.34324 14.0592 3.34324 14.0816 3.34324C14.1497 3.34187 14.2178 3.34392 14.2859 3.34324C14.3083 3.34324 14.3315 3.34324 14.3539 3.34324C14.467 3.34324 14.5813 3.3405 14.6937 3.34324C14.7161 3.34324 14.7393 3.34324 14.7617 3.34324C14.9176 3.34803 15.0402 3.36859 15.1865 3.38023C15.2839 3.38777 15.435 3.29734 15.5092 3.446C14.7672 3.45354 14.0238 3.43778 13.281 3.44463C12.7126 3.45011 12.0134 3.42477 11.464 3.48026C11.4416 3.48231 11.4184 3.4782 11.3959 3.48026C11.1359 3.50835 11.0944 3.45217 11.1236 3.768C11.1195 3.8002 11.1733 3.79404 11.1924 3.78787C11.0467 4.12083 11.0862 4.80251 11.0903 5.19096C11.0903 5.21357 11.0903 5.23686 11.0903 5.25947V5.26016ZM6.67131 3.37818C6.65769 3.00959 6.59302 2.65265 6.60323 2.2827C6.05384 2.29023 5.50241 2.27379 4.95301 2.28133C4.87268 2.2827 4.79848 2.31695 4.71814 2.31832C3.827 2.33203 2.76634 2.26215 1.89562 2.35189C1.55591 2.38683 1.57497 2.56702 1.60629 2.88148C1.66483 3.46108 2.14547 3.59673 2.47292 3.99409C2.51173 3.85159 2.43684 3.69059 2.62406 3.63304C2.93313 3.62961 3.23676 3.56453 3.54379 3.54945C3.6677 3.54329 3.79364 3.55357 3.91754 3.54945C3.94001 3.55083 3.96316 3.5474 3.98562 3.54945C4.01421 3.55151 4.04825 3.5152 4.0537 3.5152C4.08774 3.51726 4.12178 3.51383 4.15582 3.5152C4.16263 3.5152 4.21436 3.54808 4.29197 3.54945C4.31444 3.54945 4.33759 3.54945 4.36005 3.54945C4.41928 3.55083 4.45672 3.5152 4.46217 3.5152C4.47374 3.5152 4.48464 3.5152 4.49621 3.5152C4.54523 3.51588 4.61943 3.5152 4.6664 3.5152C4.86996 3.51726 5.081 3.51314 5.27843 3.5152C5.28115 3.5152 5.28932 3.54945 5.31247 3.54945C5.34651 3.54945 5.38055 3.54945 5.41458 3.54945C5.48607 3.54945 5.54325 3.5152 5.55074 3.5152C5.60588 3.5152 5.67669 3.54877 5.75498 3.54945C5.80059 3.54945 5.84552 3.54945 5.89113 3.54945C5.93674 3.54945 5.98304 3.55357 6.02729 3.54945C6.05588 3.54671 6.08584 3.54877 6.09537 3.5152C6.11647 3.52411 6.26148 3.5522 6.28462 3.5522C6.35815 3.5522 6.25944 3.50287 6.43508 3.5152C6.46844 3.51726 6.50316 3.5152 6.5372 3.5152H6.60527C6.59983 3.53233 6.60936 3.56247 6.60527 3.58371C5.63107 3.5844 4.52548 3.5659 3.56149 3.6166C3.24493 3.63304 2.91475 3.71594 2.5941 3.72073C2.56211 4.22771 2.54849 4.73537 2.5587 5.2444C2.57981 6.33509 2.6581 7.44016 2.69554 8.52879C2.70643 8.8549 2.67443 9.18101 2.73026 9.50369C3.04955 9.09126 3.27625 8.61785 3.6003 8.20679C3.90733 7.81696 4.3124 7.39426 4.70521 7.09487C5.30566 6.63653 5.99665 6.3344 6.69173 6.04871C6.72577 5.99801 6.71148 4.98954 6.70875 4.83128C6.70263 4.42228 6.68493 3.99683 6.67335 3.58371C6.67131 3.5152 6.67607 3.44669 6.67335 3.37818H6.67131ZM8.06487 5.70548C8.70753 5.63902 9.35768 5.59312 10.0024 5.67122L10.0364 2.35121L7.79256 2.41972C7.79052 2.48754 7.79528 2.55674 7.79256 2.62525C7.79188 2.64786 7.79256 2.67115 7.79256 2.69376C7.79052 2.80406 7.78507 2.92738 7.79256 3.03563C7.76056 3.0322 7.75512 3.08153 7.75852 3.10414C7.76465 3.14387 7.78847 3.18155 7.79256 3.24116C7.79256 3.24595 7.7912 3.27815 7.79256 3.30967C7.7946 3.37818 7.79052 3.44669 7.79256 3.5152C7.79256 3.53301 7.7912 3.55357 7.79256 3.58371C7.7946 3.64057 7.7912 3.69812 7.79256 3.75499C7.77554 3.78171 7.76601 3.77485 7.75852 3.8235C7.73946 3.94613 7.78643 4.15783 7.79256 4.30238C7.79392 4.33664 7.7912 4.37089 7.79256 4.40515C7.79528 4.46201 7.79052 4.51956 7.79256 4.57643C7.7946 4.63329 7.82592 4.68947 7.8266 4.71345C7.82728 4.73742 7.82592 4.75935 7.8266 4.78196C7.82728 4.80251 7.82524 4.84293 7.8266 4.88472C7.83204 5.02106 7.82387 5.15876 7.8266 5.2951C7.82728 5.341 7.82592 5.38622 7.8266 5.43212C7.8266 5.45473 7.82592 5.47802 7.8266 5.50063C7.82796 5.54585 7.82183 5.59312 7.8266 5.63765C7.82932 5.65957 7.82183 5.68698 7.8266 5.70616C7.83341 5.73425 7.83068 5.73562 7.86064 5.74042C7.92123 5.75001 7.95935 5.71164 7.99679 5.70616C8.01858 5.70342 8.04241 5.70822 8.06487 5.70616V5.70548ZM5.31179 18.8458C5.03947 18.6848 4.78826 18.4306 4.51255 18.2641L4.46217 18.3319C4.46013 18.3038 4.46898 18.2614 4.45264 18.2401C4.26747 18.0031 3.9686 17.7784 3.76437 17.5454C3.51929 17.2659 3.33343 16.9446 3.10265 16.6555C3.23404 18.3765 3.28646 20.107 3.4587 21.8239C3.49137 21.9274 3.53631 21.9808 3.63978 22.0164C3.78615 22.0671 4.1388 22.089 4.30763 22.0973C4.70793 22.1178 5.11504 22.0795 5.51602 22.0952C5.42752 21.9219 5.26277 21.8821 5.11776 21.7958C5.08032 21.7732 5.02382 21.7712 5.09121 21.7184C5.29817 21.6766 5.54802 22.0699 5.60588 22.0897C5.64197 22.1021 6.02525 22.1267 6.10898 22.1308C7.71155 22.2137 9.36585 22.0233 10.9698 22.1993C12.044 22.1144 13.2817 22.309 14.3362 22.198C14.6433 22.1658 14.5922 21.9582 14.6249 21.7013C14.7018 21.097 14.6902 20.4948 14.7277 19.8885C14.7454 19.6021 14.9047 18.0791 14.8291 17.9544C14.8244 17.9462 14.8346 17.9277 14.8291 17.9202C14.9796 17.64 14.8993 17.27 14.9306 16.9617C14.8679 17.0439 14.7896 17.122 14.727 17.2015C14.6698 17.2734 14.612 17.3735 14.5568 17.4413C14.5098 17.4995 14.467 17.5543 14.4207 17.6126C14.4166 17.6174 14.4002 17.6174 14.3526 17.6811C14.2981 17.7537 14.2648 17.7489 14.2164 17.8524C14.1313 17.8476 14.1163 17.9236 14.0803 17.9551C14.0564 17.9764 14.0353 18.0017 14.0122 18.0236C13.9605 18.0736 13.9639 18.0038 13.9101 18.1264C13.8488 18.212 13.761 18.2326 13.7058 18.3319C13.6548 18.3203 13.6384 18.3422 13.6037 18.3662C13.5622 18.395 13.5343 18.445 13.5016 18.469C13.488 18.4785 13.4587 18.4854 13.4335 18.5032C13.36 18.5553 13.215 18.63 13.1619 18.6745C13.149 18.6854 13.1387 18.6957 13.1279 18.7087C13.1156 18.7238 13.1047 18.756 13.0938 18.7773C13.0251 18.7875 13.006 18.8225 12.9577 18.8458C12.9345 18.8567 12.9127 18.8691 12.8896 18.88C12.8263 18.9108 12.7772 18.9513 12.7194 18.9828C12.7078 18.9889 12.6649 18.9924 12.6173 19.017C12.5655 19.0438 12.5104 19.0876 12.4471 19.1198C12.4246 19.1314 12.4015 19.1424 12.379 19.1541C12.3286 19.1794 12.3123 19.1917 12.2428 19.2226C12.2238 19.2308 12.1829 19.239 12.1407 19.2568C12.027 19.3048 11.914 19.3473 11.801 19.3938C11.7738 19.4048 11.7479 19.4048 11.6989 19.4281C11.6499 19.4514 11.5927 19.4836 11.5627 19.5309H11.5287C11.4783 19.4891 11.4136 19.55 11.3585 19.5651C11.3483 19.5679 11.3347 19.5624 11.3245 19.5651C11.2543 19.585 10.9276 19.6734 10.9174 19.7206C10.9208 19.7933 10.9902 19.8351 11.0099 19.8988C11.0556 20.0454 11.076 20.303 11.0869 20.4544C11.0875 20.4647 11.0889 20.479 11.0869 20.4886C11.0848 20.4962 11.0576 20.5092 11.0528 20.5229C11.0487 20.5339 11.0304 20.5517 11.0188 20.5914C11.0161 20.6017 11.0215 20.6147 11.0188 20.6257C11.0181 20.6291 10.9895 20.6346 10.9847 20.6942C10.982 20.7325 10.9786 20.7963 10.9847 20.8312C10.8799 20.8552 10.8377 20.9018 10.6791 20.934C10.6471 20.9401 10.6198 20.9668 10.611 20.9682C10.5205 20.984 10.4115 20.9853 10.3053 21.0025C10.227 20.9401 10.0718 20.9689 9.96562 20.9682C9.84103 20.9675 9.71577 20.9668 9.59187 20.9682C9.5694 20.9682 9.54625 20.9682 9.52379 20.9682C9.38627 20.971 9.1868 20.947 9.06426 20.9682C8.99074 20.9812 9.00435 21.0155 8.97984 21.036C8.94717 20.971 8.93287 20.9703 8.86411 20.9655C8.68098 20.9525 8.50534 20.9689 8.33378 21.0018C8.32425 21.0038 8.30927 21.0032 8.29974 21.0018C8.29634 20.9853 8.28204 20.9696 8.2657 20.9675C8.15133 20.9511 7.98182 20.9675 7.85791 20.9675C7.82387 20.9675 7.78984 20.9682 7.7558 20.9675C7.71086 20.9668 7.66525 20.9696 7.61964 20.9675C7.60807 20.9675 7.59717 20.9675 7.5856 20.9675C7.36639 20.9559 6.95043 20.9641 6.90754 20.675C6.87963 20.4866 6.84219 19.9796 6.90005 19.8172C6.92252 19.7549 7.04302 19.7193 7.00694 19.5994C6.79862 19.5699 6.61549 19.4713 6.42963 19.3932C6.3881 19.376 6.3493 19.3685 6.32751 19.3589C6.28122 19.3384 6.23765 19.3116 6.19136 19.2904C6.16889 19.2801 6.14643 19.2671 6.12328 19.2561C6.05384 19.2233 5.9878 19.1876 5.91904 19.1534C5.89658 19.1424 5.87343 19.1308 5.85097 19.1191C5.7931 19.0897 5.73796 19.0472 5.68077 19.0164C5.63448 18.991 5.59091 18.9889 5.57865 18.9821C5.52283 18.9506 5.46496 18.9122 5.40846 18.8793C5.35944 18.8512 5.31587 18.8506 5.30634 18.8451L5.31179 18.8458ZM10.9153 19.8775C10.8452 19.859 10.7737 19.8419 10.7002 19.8371C10.3285 19.8111 9.69807 19.7768 9.33794 19.8029C9.12213 19.8186 8.87705 19.9104 8.65919 19.9097C8.37667 19.9097 8.02811 19.8268 7.74082 19.8042C7.61011 19.7939 7.15262 19.7453 7.06548 19.7748C7.00217 19.796 6.98243 19.9289 6.9763 19.9926C6.96541 20.1064 7.0083 20.7065 7.0614 20.762C7.20436 20.9107 8.14112 20.8607 8.38824 20.8641C9.00163 20.8709 9.64225 20.9086 10.2577 20.9018C10.3707 20.9004 10.7002 20.8634 10.7989 20.8298C10.9228 20.7873 10.9364 20.6195 10.9493 20.5023C10.9718 20.2927 10.9459 20.0837 10.9146 19.8782L10.9153 19.8775ZM14.6937 22.0966C14.6331 22.4049 13.874 22.2918 13.6214 22.3007C11.9807 22.359 10.4265 22.2617 8.79739 22.2322C7.52978 22.2096 6.24582 22.2596 4.98841 22.2336C4.66368 22.2267 3.72624 22.2336 3.48525 22.074C3.3205 21.965 3.35794 21.7431 3.28918 21.5834C3.2211 21.7575 2.99032 22.0404 2.94539 22.2014C2.9236 22.2802 2.96172 22.2802 2.96581 22.3028C2.96785 22.3117 2.96717 22.3357 2.96581 22.3371C2.95832 22.3446 2.90454 22.3323 2.86982 22.3932C2.78881 22.5364 2.78949 22.9995 2.79629 23.1749C2.80106 23.3078 2.88548 23.7333 2.86233 23.823C2.85825 23.8388 2.81672 23.8922 2.79629 23.8607C2.73502 23.8169 2.77247 23.4627 2.7112 23.364C2.46543 23.7943 2.20061 24.2094 2.15432 24.7198C2.05696 25.792 2.07671 27.0122 2.04743 28.1029C2.03858 28.4324 1.96982 28.7935 2.0168 29.1264C2.06377 29.4594 2.40144 29.4882 2.67716 29.5231C3.73509 29.656 5.081 29.5615 6.17978 29.5902C8.85866 29.6615 11.5491 29.7636 14.2362 29.83C14.6651 29.8403 15.3928 29.9691 15.772 29.7362C16.1131 29.5265 15.9293 28.6551 15.9163 28.3098C15.8748 27.2232 15.9279 26.0161 15.8496 24.9555C15.8435 24.8726 15.7931 24.4849 15.7312 24.4588C15.6706 24.6089 15.497 24.6089 15.3738 24.6808C15.5126 24.7794 15.7128 24.9192 15.7141 25.1083L15.3084 24.7116C15.2662 24.5767 15.6672 24.4972 15.7495 24.4047C15.6413 24.1533 15.5746 23.7264 15.3744 23.5346C15.4051 23.3674 15.3016 23.2448 15.2723 23.09L15.2206 23.4161C15.2226 23.4339 15.2587 23.4887 15.2723 23.5004C15.2635 23.5236 15.2464 23.5456 15.2383 23.5689C15.2233 23.6134 15.2383 23.6018 15.2383 23.6031C15.2362 23.6141 15.2403 23.6264 15.2383 23.6374C15.2294 23.6922 15.2117 23.7367 15.2042 23.8087C15.2029 23.8196 15.2056 23.8313 15.2042 23.8429C15.2022 23.8655 15.2063 23.8888 15.2042 23.9114C15.2022 23.934 15.2056 23.9573 15.2042 23.9799C15.2029 24.0025 15.2049 24.0258 15.2042 24.0484C15.1532 24.1224 15.1368 23.9923 15.1348 23.9649C15.0994 23.4654 15.2056 22.9694 15.1362 22.4748C15.0497 22.4789 15.015 22.5577 14.9326 22.5946C14.6167 22.7378 14.0251 22.5967 13.6745 22.6111L13.7249 22.5426C14.0912 22.5337 14.5534 22.6508 14.9061 22.5337C14.968 22.5131 15.0123 22.422 15.1014 22.4384C15.1225 22.4152 15.0504 22.248 15.0347 22.2C15.0007 22.0973 14.951 22.0404 14.9367 22.0014C14.8747 21.8314 14.8666 21.6239 14.7461 21.4814C14.7025 21.6629 14.7297 21.9212 14.695 22.0973L14.6937 22.0966Z" fill="#3854A4"/>
<path d="M9.04996 19.735C6.69854 19.8933 4.37026 18.4772 3.15507 16.4815C2.34494 15.1517 1.94804 13.9939 2.04811 12.3955C2.42254 6.41113 9.81312 3.4371 14.0149 7.7738C14.2014 7.96632 14.4935 8.26091 14.4915 8.52879C14.4894 8.8131 14.3825 8.73432 14.2382 8.89121C14.2055 8.92683 13.8903 9.3146 13.9114 9.33173C13.9795 9.34954 14.004 9.30981 14.049 9.2824C14.1606 9.21526 14.375 9.04536 14.4724 8.95561C14.5262 8.90628 14.5786 8.7857 14.6256 8.75076L14.6249 8.75008L14.5575 8.51097C14.6229 8.50686 14.5745 8.59661 14.6079 8.64868C14.6208 8.66992 14.6937 8.69458 14.727 8.71651C15.0266 8.91313 15.4418 9.82158 15.593 10.1888C17.2364 14.1692 14.8427 18.7827 10.6416 19.6432C10.1304 19.748 9.57144 19.7001 9.04996 19.735ZM9.04996 19.735C9.00027 19.7741 8.92879 19.6535 8.90632 19.6234C8.76131 19.4295 8.36646 18.8225 8.312 18.6128C8.23302 18.308 8.2269 17.9092 8.42092 17.6475C8.44203 17.8147 8.33787 17.9688 8.33378 18.1435C8.32085 18.6402 8.6306 19.0369 8.91517 19.4089C8.95329 19.4589 9.05133 19.5254 9.06835 19.5651C9.08537 19.6049 9.06358 19.7241 9.04996 19.735ZM10.2407 0.264383C12.1598 0.184911 14.085 0.114346 16.0042 0.0602225C16.4753 0.0472055 17.1397 -0.0445983 17.5986 0.0266524C17.7252 0.0465204 17.8423 0.131473 17.8811 0.255477C17.9417 0.451417 17.8675 1.05294 17.8116 1.26326C17.7354 1.54758 17.1445 2.15527 16.9212 2.4204C16.6536 2.73829 16.4038 3.06166 16.139 3.37818C16.0334 3.50424 15.74 3.72827 15.6781 3.83788C15.6447 3.89749 15.6195 4.16125 15.612 4.251C15.5303 5.30675 15.5337 6.37414 15.5113 7.43468C15.4977 8.07799 15.3983 8.96451 15.4752 9.59001C15.5058 9.83665 15.8231 10.3916 15.9184 10.6834C16.5542 12.6319 16.1968 15.0777 15.0694 16.7767C15.034 17.7592 14.9197 18.7375 14.8638 19.7186C14.8407 20.1296 14.7604 20.8531 14.793 21.2265C14.8142 21.4608 15.126 22.0246 15.2042 22.3179C15.2485 22.4837 15.2444 22.6488 15.2791 22.7899C15.3704 23.1626 15.6188 23.6161 15.7475 23.995C16.1008 25.0322 15.9517 25.9058 15.9837 26.9745C16.0048 27.687 16.1505 28.6105 16.0886 29.3018C16.0532 29.6937 15.8809 29.8698 15.5113 29.9527C15.1144 30.0417 14.5214 29.9814 14.0993 29.9677C11.2748 29.8752 8.42637 29.7663 5.6018 29.693C4.695 29.6697 3.71127 29.7245 2.81331 29.6594C2.22648 29.617 1.90719 29.5409 1.87656 28.8914C1.85205 28.368 1.92898 27.711 1.94532 27.1787C1.97119 26.3518 1.90107 24.8123 2.17746 24.093C2.27481 23.8409 2.61112 23.4051 2.65197 23.2017C2.71392 22.894 2.64448 22.6474 2.76974 22.2939C2.86505 22.0246 3.26263 21.4999 3.27488 21.2943C3.29531 20.9456 3.17345 20.4592 3.17004 20.0954C3.07201 18.9019 3.12171 17.6585 2.96241 16.4712C2.93245 16.2465 2.7112 15.9738 2.60772 15.7676C1.76763 14.0946 1.72202 12.3524 2.26869 10.5656C2.33881 10.3375 2.57096 9.93736 2.59206 9.76197C2.67988 9.04056 2.46748 8.04373 2.4879 7.29903C2.50152 6.63653 2.43888 5.97335 2.41982 5.31428C2.40961 4.9683 2.46543 4.50517 2.42323 4.18181C2.39599 3.97285 1.90787 3.66866 1.76219 3.51246C1.63216 3.3727 1.58995 3.18978 1.47081 3.05344C1.36733 2.93423 1.20939 2.85339 1.0957 2.7472C0.87921 2.54509 0.342073 2.1032 0.197747 1.90589C0.0377629 1.68597 -0.0357617 1.06116 0.0159778 0.80219C0.116053 0.30823 0.755308 0.450732 1.11408 0.436344C2.29047 0.390442 3.39811 0.378796 4.58131 0.399349C5.76451 0.419902 7.01442 0.405515 8.23439 0.366464C8.24868 0.419902 8.35965 0.417847 8.37054 0.366464C8.57614 0.358928 8.77901 0.341115 8.98257 0.332209L9.03295 0.366464L9.04996 0.332209C9.42371 0.316451 9.80155 0.280141 10.1719 0.263698L10.2223 0.297953L10.2393 0.263698L10.2407 0.264383Z" stroke="#3854A4" stroke-width="0.18"/>
</g>
</g>
</g>
</svg>
